<svg width="32" height="32" viewBox="0 0 32 32" fill="none" xmlns="http://www.w3.org/2000/svg">
<path d="M20.4465 20.2612C20.4465 21.4935 21.4442 22.4911 22.6764 22.4911C23.9086 22.4911 24.9062 21.4935 24.9062 20.2612C24.9062 19.029 23.9075 18.0314 22.6764 18.0314C21.4442 18.0325 20.4465 19.0301 20.4465 20.2612ZM21.7078 20.2612C21.7078 19.7261 22.1413 19.2926 22.6775 19.2926C23.2126 19.2926 23.6461 19.7261 23.6461 20.2612C23.6461 20.7975 23.2126 21.2309 22.6775 21.2309C22.1413 21.2309 21.7078 20.7975 21.7078 20.2612Z" fill="#132968"/>
<path d="M7.35559 20.2612C7.35559 21.4935 8.35322 22.4911 9.58545 22.4911C10.8166 22.4911 11.8153 21.4935 11.8153 20.2612C11.8153 19.029 10.8166 18.0314 9.58545 18.0314C8.35322 18.0325 7.35559 19.0301 7.35559 20.2612ZM8.61687 20.2612C8.61687 19.7261 9.05033 19.2926 9.58656 19.2926C10.1217 19.2926 10.5551 19.7261 10.5551 20.2612C10.5551 20.7975 10.1217 21.2309 9.58656 21.2309C9.05033 21.2309 8.61687 20.7975 8.61687 20.2612Z" fill="#132968"/>
<path d="M4 10.3339V18.9282C4 19.6611 4.59992 20.261 5.33166 20.261H6.95825C6.95825 18.8109 8.13797 17.6312 9.58805 17.6312C11.0381 17.6312 12.2178 18.8109 12.2178 20.261H20.0492C20.0492 18.8109 21.2289 17.6312 22.679 17.6312C24.129 17.6312 25.3088 18.8109 25.3088 20.261H26.6672C27.4001 20.261 28 19.6611 28 18.9282V15.8627C28 15.1299 27.8805 13.9435 27.733 13.2251L26.9331 10.306C26.7868 9.58764 26.0673 9.00002 25.3345 9.00002H5.33277C4.59992 9.00113 4 9.59993 4 10.3339ZM22.4633 9.79879H25.1032C25.6528 9.79879 26.1846 10.2412 26.284 10.7819L27.0013 13.6407C27.0862 14.0976 26.8359 14.483 26.4237 14.5914L25.8137 13.1469C25.7288 12.9436 25.4942 12.8475 25.2909 12.9347C25.0876 13.0207 24.9926 13.2542 25.0775 13.4575L25.5691 14.6227H22.4645V9.79879H22.4633ZM16.5334 9.79879H21.6635V14.6227H16.5334V9.79879ZM10.6035 9.79879H15.7336V14.6227H10.6035V9.79879ZM4.81776 10.7986C4.81776 10.249 5.26798 9.79879 5.81762 9.79879H9.80589V14.6227H5.81762C5.26798 14.6227 4.81776 14.1736 4.81776 13.624V10.7986V10.7986Z" fill="#132968"/>
</svg>
