<svg width="32" height="32" viewBox="0 0 32 32" fill="none" xmlns="http://www.w3.org/2000/svg">
<path d="M27.9719 14.2008C27.8032 13.5064 25.6268 13.36 25.6268 13.36C25.418 12.9816 24.6984 12.88 23.5472 13.1587C23.4549 13.1811 23.3533 13.2053 23.2443 13.2323L23.2415 13.223L11.4634 16.079L9.15268 15.6567L5.42145 13.6527C5.37391 13.6247 5.31705 13.6163 5.26299 13.6294L4.16217 13.896C4.02049 13.9305 3.95524 14.0936 4.03354 14.2166L5.87352 17.4333L4.38774 17.8677C4.31411 17.8854 4.31038 17.9898 4.38401 18.0122L5.93038 18.6078C6.1224 19.3991 7.36583 19.5921 7.36583 19.5921C10.9871 19.7869 14.653 19.2015 16.0773 18.9368C17.2844 19.8074 20.1972 18.9909 20.1972 18.9909C21.1433 18.5183 21.3447 18.028 21.34 17.6887L24.0748 17.026L24.237 16.9868L24.2351 16.9794C27.7492 15.9569 28.1257 14.8365 27.9719 14.2008ZM13.6501 18.1138C13.3434 18.1865 13.0219 17.9357 12.9314 17.5545C12.842 17.1733 13.0181 16.8051 13.3248 16.7333C13.6315 16.6606 13.953 16.9113 14.0435 17.2926C14.1329 17.6738 13.9568 18.042 13.6501 18.1138ZM15.6737 17.5853C15.367 17.658 15.0455 17.4072 14.9551 17.026C14.8656 16.6448 15.0417 16.2766 15.3484 16.2048C15.6551 16.133 15.9766 16.3828 16.0671 16.7641C16.1565 17.1453 15.9813 17.5126 15.6737 17.5853ZM17.6982 17.0558C17.3916 17.1285 17.07 16.8778 16.9796 16.4966C16.8901 16.1153 17.0663 15.7471 17.3729 15.6754C17.6796 15.6036 18.0012 15.8534 18.0916 16.2346C18.1811 16.6159 18.0049 16.9841 17.6982 17.0558ZM19.7228 16.5264C19.4161 16.5991 19.0945 16.3484 19.0041 15.9671C18.9146 15.5859 19.0908 15.2177 19.3975 15.1459C19.7041 15.0732 20.0257 15.324 20.1161 15.7052C20.2056 16.0864 20.0294 16.4546 19.7228 16.5264ZM24.6126 14.6696L22.0969 15.2615C21.6979 15.3557 21.2953 15.1059 21.2011 14.7069C21.1899 14.6575 21.1834 14.6081 21.1815 14.5596C21.1787 14.473 21.2375 14.3956 21.3214 14.3732L22.9181 13.9482L22.9208 13.9566C23.0215 13.9295 23.1166 13.9044 23.2014 13.882C24.2696 13.5977 24.9426 13.6779 25.1449 14.0265C25.1085 14.3294 24.9258 14.596 24.6126 14.6696Z" fill="#132968"/>
</svg>
