<svg width="32" height="32" viewBox="0 0 32 32" fill="none" xmlns="http://www.w3.org/2000/svg">
<path fill-rule="evenodd" clip-rule="evenodd" d="M4 18.9926V19.5668V20.3653C4 20.4483 4.06699 20.5152 4.14992 20.5152H18.8306H26.2767H26.6754C26.9721 20.5152 27.2677 20.4153 27.5133 20.2048C27.5314 20.1888 27.5505 20.1718 27.5686 20.1548C27.8674 19.8709 28.012 19.4307 27.9992 18.9926H4V18.9926Z" fill="#132968"/>
<path fill-rule="evenodd" clip-rule="evenodd" d="M27.7019 18.0704C27.7019 18.0704 21.9113 11.7099 14.9373 11.4101C14.9373 11.4101 6.63201 10.7689 4.17477 11.09C4.08014 11.1028 4.0004 11.1751 4.0004 11.2803V18.568H27.9358C27.8869 18.3883 27.8093 18.2182 27.7019 18.0704ZM9.18068 15.8141C9.18068 16.3585 8.73517 16.8041 8.19077 16.8041H8.04936C7.50496 16.8041 7.05944 16.3585 7.05944 15.8141V15.1581C7.05944 14.6137 7.50496 14.1682 8.04936 14.1682H8.19077C8.73517 14.1682 9.18068 14.6137 9.18068 15.1581V15.8141ZM12.9585 15.8141C12.9585 16.3585 12.513 16.8041 11.9686 16.8041H11.8272C11.2828 16.8041 10.8373 16.3585 10.8373 15.8141V15.1581C10.8373 14.6137 11.2828 14.1682 11.8272 14.1682H11.9686C12.513 14.1682 12.9585 14.6137 12.9585 15.1581V15.8141ZM16.7353 15.8141C16.7353 16.3585 16.2898 16.8041 15.7454 16.8041H15.6039C15.0595 16.8041 14.614 16.3585 14.614 15.8141V15.1581C14.614 14.6137 15.0595 14.1682 15.6039 14.1682H15.7454C16.2898 14.1682 16.7353 14.6137 16.7353 15.1581V15.8141ZM19.4913 13.3835C19.4828 13.3963 19.4743 13.4079 19.4658 13.4218C19.1032 14.0491 20.0304 15.2623 21.5349 16.131C22.797 16.8593 24.0655 17.1145 24.6556 16.8083C23.4743 15.7822 21.6657 14.4053 19.4913 13.3835Z" fill="#132968"/>
</svg>
