<svg width="496" height="479" viewBox="0 0 496 479" fill="none" xmlns="http://www.w3.org/2000/svg">
<g filter="url(#filter0_d_1144_39338)">
<rect x="16" y="15" width="450" height="419" rx="13" fill="white"/>
</g>
<rect x="40.25" y="39.25" width="401.5" height="49.5" rx="9.75" fill="#F1F3F6"/>
<path d="M93.4091 58.3636V70H94.7273V61.1591H94.8409L98.4773 70H99.75L103.386 61.1591H103.5V70H104.818V58.3636H103.136L99.1818 68.0227H99.0455L95.0909 58.3636H93.4091ZM110.03 70.2045C111.553 70.2045 112.348 69.3864 112.621 68.8182H112.689V70H114.03V64.25C114.03 61.4773 111.916 61.1591 110.803 61.1591C109.484 61.1591 107.984 61.6136 107.303 63.2045L108.575 63.6591C108.871 63.0227 109.57 62.3409 110.848 62.3409C112.081 62.3409 112.689 62.9943 112.689 64.1136V64.1591C112.689 64.8068 112.03 64.75 110.439 64.9545C108.82 65.1648 107.053 65.5227 107.053 67.5227C107.053 69.2273 108.371 70.2045 110.03 70.2045ZM110.234 69C109.166 69 108.393 68.5227 108.393 67.5909C108.393 66.5682 109.325 66.25 110.371 66.1136C110.939 66.0455 112.462 65.8864 112.689 65.6136V66.8409C112.689 67.9318 111.825 69 110.234 69ZM119.773 70.1818C121.455 70.1818 122.023 69.1364 122.318 68.6591H122.477V70H123.773V58.3636H122.432V62.6591H122.318C122.023 62.2045 121.5 61.1591 119.795 61.1591C117.591 61.1591 116.068 62.9091 116.068 65.6591C116.068 68.4318 117.591 70.1818 119.773 70.1818ZM119.955 68.9773C118.273 68.9773 117.409 67.5 117.409 65.6364C117.409 63.7955 118.25 62.3636 119.955 62.3636C121.591 62.3636 122.455 63.6818 122.455 65.6364C122.455 67.6136 121.568 68.9773 119.955 68.9773ZM126.415 70H127.756V64.4773C127.756 63.2955 128.688 62.4318 129.96 62.4318C130.318 62.4318 130.688 62.5 130.778 62.5227V61.1591C130.625 61.1477 130.273 61.1364 130.074 61.1364C129.028 61.1364 128.119 61.7273 127.801 62.5909H127.71V61.2727H126.415V70ZM132.368 70H133.709V61.2727H132.368V70ZM133.05 59.8182C133.572 59.8182 134.004 59.4091 134.004 58.9091C134.004 58.4091 133.572 58 133.05 58C132.527 58 132.095 58.4091 132.095 58.9091C132.095 59.4091 132.527 59.8182 133.05 59.8182ZM139.46 70.1818C141.142 70.1818 141.71 69.1364 142.006 68.6591H142.165V70H143.46V58.3636H142.119V62.6591H142.006C141.71 62.2045 141.188 61.1591 139.483 61.1591C137.278 61.1591 135.756 62.9091 135.756 65.6591C135.756 68.4318 137.278 70.1818 139.46 70.1818ZM139.642 68.9773C137.96 68.9773 137.097 67.5 137.097 65.6364C137.097 63.7955 137.938 62.3636 139.642 62.3636C141.278 62.3636 142.142 63.6818 142.142 65.6364C142.142 67.6136 141.256 68.9773 139.642 68.9773Z" fill="#132968"/>
<path d="M404.292 60.7933L408.287 56.7933C408.648 56.4326 409.215 56.4046 409.607 56.7093L409.701 56.7924L413.707 60.7924C414.097 61.1827 414.098 61.8159 413.708 62.2066C413.347 62.5674 412.78 62.5955 412.388 62.2907L412.293 62.2076L410 59.917L410 70.5007C410 71.0135 409.614 71.4362 409.117 71.4939L409 71.5007C408.487 71.5007 408.065 71.1146 408.007 70.6173L408 70.5007L408 59.91L405.707 62.2067C405.346 62.5674 404.779 62.5954 404.387 62.2906L404.292 62.2075C403.932 61.8472 403.904 61.28 404.208 60.8875L404.292 60.7933L408.287 56.7933L404.292 60.7933ZM418.883 56.5099L419 56.5032C419.513 56.5032 419.936 56.8893 419.993 57.3866L420 57.5032L420 68.087L422.293 65.7932C422.653 65.4326 423.22 65.4046 423.613 65.7094L423.707 65.7926C424.067 66.1529 424.095 66.7201 423.791 67.1125L423.707 67.2068L419.711 71.2068C419.351 71.5674 418.784 71.5954 418.391 71.2906L418.297 71.2074L414.293 67.2074C413.903 66.8171 413.902 66.1839 414.293 65.7932C414.653 65.4326 415.22 65.4046 415.613 65.7094L415.707 65.7926L418 68.083L418 57.5032C418 56.9904 418.386 56.5677 418.883 56.5099L419 56.5032L418.883 56.5099Z" fill="#208CFB"/>
<path d="M68.0001 65.9999C69.1047 65.9999 70.0001 65.1045 70.0001 63.9999C70.0001 62.8953 69.1047 61.9999 68.0001 61.9999C66.8956 61.9999 66.0001 62.8953 66.0001 63.9999C66.0001 65.1045 66.8956 65.9999 68.0001 65.9999Z" fill="#208CFB"/>
<path fill-rule="evenodd" clip-rule="evenodd" d="M57.998 63.9999C57.998 58.4759 62.4761 53.9978 68.0001 53.9978C73.5242 53.9978 78.0022 58.4759 78.0022 63.9999C78.0022 69.5239 73.5242 74.002 68.0001 74.002C62.4761 74.002 57.998 69.5239 57.998 63.9999ZM68.0001 55.4978C63.3046 55.4978 59.498 59.3043 59.498 63.9999C59.498 68.6955 63.3046 72.502 68.0001 72.502C72.6957 72.502 76.5022 68.6955 76.5022 63.9999C76.5022 59.3043 72.6957 55.4978 68.0001 55.4978Z" fill="#208CFB"/>
<rect x="40.25" y="39.25" width="401.5" height="49.5" rx="9.75" stroke="#DEE7F4" stroke-width="0.5"/>
<rect x="40.25" y="105.25" width="401.5" height="49.5" rx="9.75" fill="#F1F3F6"/>
<path d="M99.7727 127.273H101.136C101.074 125.517 99.4545 124.205 97.2045 124.205C94.9773 124.205 93.2273 125.5 93.2273 127.455C93.2273 129.023 94.3636 129.955 96.1818 130.477L97.6136 130.886C98.8409 131.227 99.9318 131.659 99.9318 132.818C99.9318 134.091 98.7045 134.932 97.0909 134.932C95.7045 134.932 94.4773 134.318 94.3636 133H92.9091C93.0455 134.909 94.5909 136.205 97.0909 136.205C99.7727 136.205 101.295 134.727 101.295 132.841C101.295 130.659 99.2273 129.955 98.0227 129.636L96.8409 129.318C95.9773 129.091 94.5909 128.636 94.5909 127.386C94.5909 126.273 95.6136 125.455 97.1591 125.455C98.5682 125.455 99.6364 126.125 99.7727 127.273ZM107.089 136.182C108.862 136.182 110.158 135.295 110.567 133.977L109.271 133.614C108.93 134.523 108.141 134.977 107.089 134.977C105.516 134.977 104.43 133.96 104.368 132.091H110.703V131.523C110.703 128.273 108.771 127.159 106.953 127.159C104.589 127.159 103.021 129.023 103.021 131.705C103.021 134.386 104.567 136.182 107.089 136.182ZM104.368 130.932C104.459 129.574 105.419 128.364 106.953 128.364C108.408 128.364 109.339 129.455 109.339 130.932H104.368ZM114.084 124.364H112.743V136H114.084V124.364ZM120.199 136.182C121.972 136.182 123.267 135.295 123.676 133.977L122.381 133.614C122.04 134.523 121.25 134.977 120.199 134.977C118.625 134.977 117.54 133.96 117.477 132.091H123.812V131.523C123.812 128.273 121.881 127.159 120.062 127.159C117.699 127.159 116.131 129.023 116.131 131.705C116.131 134.386 117.676 136.182 120.199 136.182ZM117.477 130.932C117.568 129.574 118.528 128.364 120.062 128.364C121.517 128.364 122.449 129.455 122.449 130.932H117.477ZM129.398 136.182C131.33 136.182 132.602 135 132.83 133.455H131.489C131.239 134.409 130.443 134.977 129.398 134.977C127.807 134.977 126.784 133.659 126.784 131.636C126.784 129.659 127.83 128.364 129.398 128.364C130.58 128.364 131.284 129.091 131.489 129.886H132.83C132.602 128.25 131.216 127.159 129.375 127.159C127.011 127.159 125.443 129.023 125.443 131.682C125.443 134.295 126.943 136.182 129.398 136.182ZM138.585 127.273H136.722V125.182H135.381V127.273H134.062V128.409H135.381V133.864C135.381 135.386 136.608 136.114 137.744 136.114C138.244 136.114 138.562 136.023 138.744 135.955L138.472 134.75C138.358 134.773 138.176 134.818 137.881 134.818C137.29 134.818 136.722 134.636 136.722 133.5V128.409H138.585V127.273ZM145.966 139.273C147.176 139.273 148.028 138.631 148.534 137.273L152.25 127.295L150.784 127.273L148.375 134.227H148.284L145.875 127.273H144.42L147.648 136.045L147.398 136.727C146.909 138.057 146.307 138.182 145.33 137.932L144.989 139.114C145.125 139.182 145.511 139.273 145.966 139.273ZM157.257 136.182C159.621 136.182 161.212 134.386 161.212 131.682C161.212 128.955 159.621 127.159 157.257 127.159C154.893 127.159 153.303 128.955 153.303 131.682C153.303 134.386 154.893 136.182 157.257 136.182ZM157.257 134.977C155.462 134.977 154.643 133.432 154.643 131.682C154.643 129.932 155.462 128.364 157.257 128.364C159.053 128.364 159.871 129.932 159.871 131.682C159.871 133.432 159.053 134.977 157.257 134.977ZM168.759 132.432C168.759 134.068 167.509 134.818 166.509 134.818C165.395 134.818 164.599 134 164.599 132.727V127.273H163.259V132.818C163.259 135.045 164.44 136.114 166.077 136.114C167.395 136.114 168.259 135.409 168.668 134.523H168.759V136H170.099V127.273H168.759V132.432ZM172.555 136H173.896V130.477C173.896 129.295 174.828 128.432 176.101 128.432C176.459 128.432 176.828 128.5 176.919 128.523V127.159C176.766 127.148 176.413 127.136 176.214 127.136C175.169 127.136 174.26 127.727 173.942 128.591H173.851V127.273H172.555V136ZM186.304 136.182C187.986 136.182 188.554 135.136 188.849 134.659H189.009V136H190.304V124.364H188.963V128.659H188.849C188.554 128.205 188.031 127.159 186.327 127.159C184.122 127.159 182.599 128.909 182.599 131.659C182.599 134.432 184.122 136.182 186.304 136.182ZM186.486 134.977C184.804 134.977 183.94 133.5 183.94 131.636C183.94 129.795 184.781 128.364 186.486 128.364C188.122 128.364 188.986 129.682 188.986 131.636C188.986 133.614 188.099 134.977 186.486 134.977ZM196.605 136.182C198.378 136.182 199.673 135.295 200.082 133.977L198.787 133.614C198.446 134.523 197.656 134.977 196.605 134.977C195.031 134.977 193.946 133.96 193.884 132.091H200.219V131.523C200.219 128.273 198.287 127.159 196.469 127.159C194.105 127.159 192.537 129.023 192.537 131.705C192.537 134.386 194.082 136.182 196.605 136.182ZM193.884 130.932C193.974 129.574 194.935 128.364 196.469 128.364C197.923 128.364 198.855 129.455 198.855 130.932H193.884ZM208.44 129.227C208.02 127.989 207.077 127.159 205.349 127.159C203.509 127.159 202.145 128.205 202.145 129.682C202.145 130.886 202.861 131.693 204.463 132.068L205.918 132.409C206.798 132.614 207.213 133.034 207.213 133.636C207.213 134.386 206.418 135 205.168 135C204.071 135 203.384 134.528 203.145 133.591L201.872 133.909C202.185 135.392 203.406 136.182 205.19 136.182C207.219 136.182 208.599 135.074 208.599 133.568C208.599 132.352 207.838 131.585 206.281 131.205L204.986 130.886C203.952 130.631 203.486 130.284 203.486 129.614C203.486 128.864 204.281 128.318 205.349 128.318C206.52 128.318 207.003 128.966 207.236 129.568L208.44 129.227ZM214.413 127.273H212.55V125.182H211.209V127.273H209.891V128.409H211.209V133.864C211.209 135.386 212.436 136.114 213.572 136.114C214.072 136.114 214.391 136.023 214.572 135.955L214.3 134.75C214.186 134.773 214.004 134.818 213.709 134.818C213.118 134.818 212.55 134.636 212.55 133.5V128.409H214.413V127.273ZM216.43 136H217.771V127.273H216.43V136ZM217.112 125.818C217.635 125.818 218.067 125.409 218.067 124.909C218.067 124.409 217.635 124 217.112 124C216.589 124 216.158 124.409 216.158 124.909C216.158 125.409 216.589 125.818 217.112 125.818ZM221.568 130.75C221.568 129.227 222.511 128.364 223.795 128.364C225.04 128.364 225.795 129.176 225.795 130.545V136H227.136V130.455C227.136 128.227 225.949 127.159 224.182 127.159C222.864 127.159 222.045 127.75 221.636 128.636H221.523V127.273H220.227V136H221.568V130.75ZM232.155 136.205C233.678 136.205 234.473 135.386 234.746 134.818H234.814V136H236.155V130.25C236.155 127.477 234.041 127.159 232.928 127.159C231.609 127.159 230.109 127.614 229.428 129.205L230.7 129.659C230.996 129.023 231.695 128.341 232.973 128.341C234.206 128.341 234.814 128.994 234.814 130.114V130.159C234.814 130.807 234.155 130.75 232.564 130.955C230.945 131.165 229.178 131.523 229.178 133.523C229.178 135.227 230.496 136.205 232.155 136.205ZM232.359 135C231.291 135 230.518 134.523 230.518 133.591C230.518 132.568 231.45 132.25 232.496 132.114C233.064 132.045 234.587 131.886 234.814 131.614V132.841C234.814 133.932 233.95 135 232.359 135ZM242.398 127.273H240.534V125.182H239.193V127.273H237.875V128.409H239.193V133.864C239.193 135.386 240.42 136.114 241.557 136.114C242.057 136.114 242.375 136.023 242.557 135.955L242.284 134.75C242.17 134.773 241.989 134.818 241.693 134.818C241.102 134.818 240.534 134.636 240.534 133.5V128.409H242.398V127.273ZM244.415 136H245.756V127.273H244.415V136ZM245.097 125.818C245.619 125.818 246.051 125.409 246.051 124.909C246.051 124.409 245.619 124 245.097 124C244.574 124 244.142 124.409 244.142 124.909C244.142 125.409 244.574 125.818 245.097 125.818ZM251.757 136.182C254.121 136.182 255.712 134.386 255.712 131.682C255.712 128.955 254.121 127.159 251.757 127.159C249.393 127.159 247.803 128.955 247.803 131.682C247.803 134.386 249.393 136.182 251.757 136.182ZM251.757 134.977C249.962 134.977 249.143 133.432 249.143 131.682C249.143 129.932 249.962 128.364 251.757 128.364C253.553 128.364 254.371 129.932 254.371 131.682C254.371 133.432 253.553 134.977 251.757 134.977ZM259.099 130.75C259.099 129.227 260.043 128.364 261.327 128.364C262.571 128.364 263.327 129.176 263.327 130.545V136H264.668V130.455C264.668 128.227 263.48 127.159 261.713 127.159C260.395 127.159 259.577 127.75 259.168 128.636H259.054V127.273H257.759V136H259.099V130.75Z" fill="#838383"/>
<path d="M61.8428 122.568C65.2432 119.168 70.7564 119.168 74.1568 122.568C77.5572 125.969 77.5572 131.482 74.1568 134.882L72.9698 136.056C72.0949 136.915 70.9598 138.019 69.5639 139.368C68.6917 140.212 67.3079 140.212 66.4358 139.368L62.9447 135.972C62.5059 135.541 62.1386 135.178 61.8428 134.882C58.4424 131.482 58.4424 125.969 61.8428 122.568ZM73.0961 123.629C70.2815 120.814 65.7181 120.814 62.9034 123.629C60.0888 126.444 60.0888 131.007 62.9034 133.822L64.3905 135.289C65.2094 136.091 66.2389 137.091 67.4786 138.29C67.7693 138.571 68.2305 138.571 68.5213 138.29L71.9162 134.989C72.3851 134.528 72.7785 134.139 73.0961 133.822C75.9107 131.007 75.9107 126.444 73.0961 123.629ZM67.9998 125.999C69.6575 125.999 71.0013 127.343 71.0013 129.001C71.0013 130.658 69.6575 132.002 67.9998 132.002C66.3421 132.002 64.9982 130.658 64.9982 129.001C64.9982 127.343 66.3421 125.999 67.9998 125.999ZM67.9998 127.499C67.1705 127.499 66.4982 128.171 66.4982 129.001C66.4982 129.83 67.1705 130.502 67.9998 130.502C68.8291 130.502 69.5013 129.83 69.5013 129.001C69.5013 128.171 68.8291 127.499 67.9998 127.499Z" fill="#208CFB"/>
<rect x="40.25" y="105.25" width="401.5" height="49.5" rx="9.75" stroke="#DEE7F4" stroke-width="0.5"/>
<rect x="40.25" y="171.25" width="192.5" height="49.5" rx="9.75" fill="#F1F3F6"/>
<path d="M87.4091 190.364V202H88.7273V193.159H88.8409L92.4773 202H93.75L97.3864 193.159H97.5V202H98.8182V190.364H97.1364L93.1818 200.023H93.0455L89.0909 190.364H87.4091ZM105.007 202.182C107.371 202.182 108.962 200.386 108.962 197.682C108.962 194.955 107.371 193.159 105.007 193.159C102.643 193.159 101.053 194.955 101.053 197.682C101.053 200.386 102.643 202.182 105.007 202.182ZM105.007 200.977C103.212 200.977 102.393 199.432 102.393 197.682C102.393 195.932 103.212 194.364 105.007 194.364C106.803 194.364 107.621 195.932 107.621 197.682C107.621 199.432 106.803 200.977 105.007 200.977ZM112.349 196.75C112.349 195.227 113.293 194.364 114.577 194.364C115.821 194.364 116.577 195.176 116.577 196.545V202H117.918V196.455C117.918 194.227 116.73 193.159 114.963 193.159C113.645 193.159 112.827 193.75 112.418 194.636H112.304V193.273H111.009V202H112.349V196.75ZM122.368 200.409H120.913L120.845 201.045C120.68 202.585 120.357 204.119 120.209 204.841H121.232C121.504 204.068 122.084 202.318 122.277 201.023L122.368 200.409ZM133.125 202C136.67 202 138.67 199.795 138.67 196.159C138.67 192.545 136.67 190.364 133.284 190.364H129.534V202H133.125ZM130.943 200.75V191.614H133.193C135.92 191.614 137.307 193.341 137.307 196.159C137.307 199 135.92 200.75 133.034 200.75H130.943ZM144.511 202.182C146.284 202.182 147.58 201.295 147.989 199.977L146.693 199.614C146.352 200.523 145.562 200.977 144.511 200.977C142.938 200.977 141.852 199.96 141.79 198.091H148.125V197.523C148.125 194.273 146.193 193.159 144.375 193.159C142.011 193.159 140.443 195.023 140.443 197.705C140.443 200.386 141.989 202.182 144.511 202.182ZM141.79 196.932C141.881 195.574 142.841 194.364 144.375 194.364C145.83 194.364 146.761 195.455 146.761 196.932H141.79ZM153.71 202.182C155.642 202.182 156.915 201 157.142 199.455H155.801C155.551 200.409 154.756 200.977 153.71 200.977C152.119 200.977 151.097 199.659 151.097 197.636C151.097 195.659 152.142 194.364 153.71 194.364C154.892 194.364 155.597 195.091 155.801 195.886H157.142C156.915 194.25 155.528 193.159 153.688 193.159C151.324 193.159 149.756 195.023 149.756 197.682C149.756 200.295 151.256 202.182 153.71 202.182ZM167.375 202.159C169.943 202.159 171.42 199.983 171.42 196.182C171.42 192.409 169.92 190.205 167.375 190.205C164.83 190.205 163.33 192.409 163.33 196.182C163.33 199.983 164.807 202.159 167.375 202.159ZM167.375 200.909C165.682 200.909 164.693 199.21 164.693 196.182C164.693 193.159 165.693 191.432 167.375 191.432C169.057 191.432 170.057 193.159 170.057 196.182C170.057 199.21 169.068 200.909 167.375 200.909ZM177.216 202.159C179.432 202.159 181.057 200.523 181.057 198.295C181.057 196.04 179.489 194.386 177.352 194.386C176.568 194.386 175.807 194.665 175.33 195.045H175.261L175.67 191.614H180.534V190.364H174.489L173.784 196.091L175.102 196.25C175.585 195.903 176.409 195.653 177.125 195.659C178.608 195.67 179.693 196.795 179.693 198.318C179.693 199.812 178.648 200.909 177.216 200.909C176.023 200.909 175.074 200.142 174.966 199.091H173.602C173.688 200.864 175.216 202.159 177.216 202.159Z" fill="#132968"/>
<path d="M73.75 187C75.5449 187 77 188.455 77 190.25V201.75C77 203.545 75.5449 205 73.75 205H62.25C60.4551 205 59 203.545 59 201.75V190.25C59 188.455 60.4551 187 62.25 187H73.75ZM75.5 192.5H60.5V201.75C60.5 202.716 61.2835 203.5 62.25 203.5H73.75C74.7165 203.5 75.5 202.716 75.5 201.75V192.5ZM63.75 198.5C64.4404 198.5 65 199.06 65 199.75C65 200.44 64.4404 201 63.75 201C63.0596 201 62.5 200.44 62.5 199.75C62.5 199.06 63.0596 198.5 63.75 198.5ZM68 198.5C68.6904 198.5 69.25 199.06 69.25 199.75C69.25 200.44 68.6904 201 68 201C67.3096 201 66.75 200.44 66.75 199.75C66.75 199.06 67.3096 198.5 68 198.5ZM63.75 194.5C64.4404 194.5 65 195.06 65 195.75C65 196.44 64.4404 197 63.75 197C63.0596 197 62.5 196.44 62.5 195.75C62.5 195.06 63.0596 194.5 63.75 194.5ZM68 194.5C68.6904 194.5 69.25 195.06 69.25 195.75C69.25 196.44 68.6904 197 68 197C67.3096 197 66.75 196.44 66.75 195.75C66.75 195.06 67.3096 194.5 68 194.5ZM72.25 194.5C72.9404 194.5 73.5 195.06 73.5 195.75C73.5 196.44 72.9404 197 72.25 197C71.5596 197 71 196.44 71 195.75C71 195.06 71.5596 194.5 72.25 194.5ZM73.75 188.5H62.25C61.2835 188.5 60.5 189.284 60.5 190.25V191H75.5V190.25C75.5 189.284 74.7165 188.5 73.75 188.5Z" fill="#208CFB"/>
<rect x="40.25" y="171.25" width="192.5" height="49.5" rx="9.75" stroke="#DEE7F4" stroke-width="0.5"/>
<rect x="249.25" y="171.25" width="192.5" height="49.5" rx="9.75" fill="#F1F3F6"/>
<path d="M266.409 190.364V202H267.727V193.159H267.841L271.477 202H272.75L276.386 193.159H276.5V202H277.818V190.364H276.136L272.182 200.023H272.045L268.091 190.364H266.409ZM284.007 202.182C286.371 202.182 287.962 200.386 287.962 197.682C287.962 194.955 286.371 193.159 284.007 193.159C281.643 193.159 280.053 194.955 280.053 197.682C280.053 200.386 281.643 202.182 284.007 202.182ZM284.007 200.977C282.212 200.977 281.393 199.432 281.393 197.682C281.393 195.932 282.212 194.364 284.007 194.364C285.803 194.364 286.621 195.932 286.621 197.682C286.621 199.432 285.803 200.977 284.007 200.977ZM291.349 196.75C291.349 195.227 292.293 194.364 293.577 194.364C294.821 194.364 295.577 195.176 295.577 196.545V202H296.918V196.455C296.918 194.227 295.73 193.159 293.963 193.159C292.645 193.159 291.827 193.75 291.418 194.636H291.304V193.273H290.009V202H291.349V196.75ZM301.368 200.409H299.913L299.845 201.045C299.68 202.585 299.357 204.119 299.209 204.841H300.232C300.504 204.068 301.084 202.318 301.277 201.023L301.368 200.409ZM312.125 202C315.67 202 317.67 199.795 317.67 196.159C317.67 192.545 315.67 190.364 312.284 190.364H308.534V202H312.125ZM309.943 200.75V191.614H312.193C314.92 191.614 316.307 193.341 316.307 196.159C316.307 199 314.92 200.75 312.034 200.75H309.943ZM323.511 202.182C325.284 202.182 326.58 201.295 326.989 199.977L325.693 199.614C325.352 200.523 324.562 200.977 323.511 200.977C321.938 200.977 320.852 199.96 320.79 198.091H327.125V197.523C327.125 194.273 325.193 193.159 323.375 193.159C321.011 193.159 319.443 195.023 319.443 197.705C319.443 200.386 320.989 202.182 323.511 202.182ZM320.79 196.932C320.881 195.574 321.841 194.364 323.375 194.364C324.83 194.364 325.761 195.455 325.761 196.932H320.79ZM332.71 202.182C334.642 202.182 335.915 201 336.142 199.455H334.801C334.551 200.409 333.756 200.977 332.71 200.977C331.119 200.977 330.097 199.659 330.097 197.636C330.097 195.659 331.142 194.364 332.71 194.364C333.892 194.364 334.597 195.091 334.801 195.886H336.142C335.915 194.25 334.528 193.159 332.688 193.159C330.324 193.159 328.756 195.023 328.756 197.682C328.756 200.295 330.256 202.182 332.71 202.182ZM346.375 202.159C348.943 202.159 350.42 199.983 350.42 196.182C350.42 192.409 348.92 190.205 346.375 190.205C343.83 190.205 342.33 192.409 342.33 196.182C342.33 199.983 343.807 202.159 346.375 202.159ZM346.375 200.909C344.682 200.909 343.693 199.21 343.693 196.182C343.693 193.159 344.693 191.432 346.375 191.432C348.057 191.432 349.057 193.159 349.057 196.182C349.057 199.21 348.068 200.909 346.375 200.909ZM356.216 202.159C358.432 202.159 360.057 200.523 360.057 198.295C360.057 196.04 358.489 194.386 356.352 194.386C355.568 194.386 354.807 194.665 354.33 195.045H354.261L354.67 191.614H359.534V190.364H353.489L352.784 196.091L354.102 196.25C354.585 195.903 355.409 195.653 356.125 195.659C357.608 195.67 358.693 196.795 358.693 198.318C358.693 199.812 357.648 200.909 356.216 200.909C355.023 200.909 354.074 200.142 353.966 199.091H352.602C352.688 200.864 354.216 202.159 356.216 202.159Z" fill="#132968"/>
<path d="M413.767 190.29L413.828 190.22C414.091 189.949 414.507 189.929 414.794 190.157L414.863 190.22L419.468 194.939L424.073 190.22C424.359 189.927 424.822 189.927 425.108 190.22C425.394 190.513 425.394 190.987 425.108 191.28L420.503 196L425.108 200.72C425.372 200.99 425.392 201.415 425.169 201.71L425.108 201.78C424.844 202.051 424.429 202.071 424.142 201.843L424.073 201.78L419.468 197.061L414.863 201.78C414.577 202.073 414.113 202.073 413.828 201.78C413.542 201.487 413.542 201.013 413.828 200.72L418.432 196L413.828 191.28C413.564 191.01 413.544 190.585 413.767 190.29L413.828 190.22L413.767 190.29Z" fill="#838383"/>
<rect x="249.25" y="171.25" width="192.5" height="49.5" rx="9.75" stroke="#DEE7F4" stroke-width="0.5"/>
<rect x="40.25" y="237.25" width="401.5" height="49.5" rx="9.75" fill="#F1F3F6"/>
<g filter="url(#filter1_i_1144_39338)">
<path d="M218.03 255.864H216.621L213.712 257.795V259.227L216.553 257.341H216.621V267.5H218.03V255.864ZM226.081 267.5H227.49V263.25H230.036C232.746 263.25 233.967 261.602 233.967 259.545C233.967 257.489 232.746 255.864 230.013 255.864H226.081V267.5ZM227.49 262V257.114H229.967C231.859 257.114 232.581 258.148 232.581 259.545C232.581 260.943 231.859 262 229.99 262H227.49ZM239.621 267.682C241.393 267.682 242.689 266.795 243.098 265.477L241.803 265.114C241.462 266.023 240.672 266.477 239.621 266.477C238.047 266.477 236.962 265.46 236.899 263.591H243.234V263.023C243.234 259.773 241.303 258.659 239.484 258.659C237.121 258.659 235.553 260.523 235.553 263.205C235.553 265.886 237.098 267.682 239.621 267.682ZM236.899 262.432C236.99 261.074 237.95 259.864 239.484 259.864C240.939 259.864 241.871 260.955 241.871 262.432H236.899ZM245.274 267.5H246.615V261.977C246.615 260.795 247.547 259.932 248.82 259.932C249.178 259.932 249.547 260 249.638 260.023V258.659C249.484 258.648 249.132 258.636 248.933 258.636C247.888 258.636 246.979 259.227 246.661 260.091H246.57V258.773H245.274V267.5ZM257.409 260.727C256.989 259.489 256.045 258.659 254.318 258.659C252.477 258.659 251.114 259.705 251.114 261.182C251.114 262.386 251.83 263.193 253.432 263.568L254.886 263.909C255.767 264.114 256.182 264.534 256.182 265.136C256.182 265.886 255.386 266.5 254.136 266.5C253.04 266.5 252.352 266.028 252.114 265.091L250.841 265.409C251.153 266.892 252.375 267.682 254.159 267.682C256.188 267.682 257.568 266.574 257.568 265.068C257.568 263.852 256.807 263.085 255.25 262.705L253.955 262.386C252.92 262.131 252.455 261.784 252.455 261.114C252.455 260.364 253.25 259.818 254.318 259.818C255.489 259.818 255.972 260.466 256.205 261.068L257.409 260.727ZM263.132 267.682C265.496 267.682 267.087 265.886 267.087 263.182C267.087 260.455 265.496 258.659 263.132 258.659C260.768 258.659 259.178 260.455 259.178 263.182C259.178 265.886 260.768 267.682 263.132 267.682ZM263.132 266.477C261.337 266.477 260.518 264.932 260.518 263.182C260.518 261.432 261.337 259.864 263.132 259.864C264.928 259.864 265.746 261.432 265.746 263.182C265.746 264.932 264.928 266.477 263.132 266.477ZM270.474 262.25C270.474 260.727 271.418 259.864 272.702 259.864C273.946 259.864 274.702 260.676 274.702 262.045V267.5H276.043V261.955C276.043 259.727 274.855 258.659 273.088 258.659C271.77 258.659 270.952 259.25 270.543 260.136H270.429V258.773H269.134V267.5H270.474V262.25Z" fill="#132968"/>
</g>
<path d="M333.383 253.007L333.5 253C334.013 253 334.436 253.386 334.493 253.883L334.5 254V261H341.5C342.013 261 342.436 261.386 342.493 261.883L342.5 262C342.5 262.513 342.114 262.936 341.617 262.993L341.5 263H334.5V270C334.5 270.513 334.114 270.936 333.617 270.993L333.5 271C332.987 271 332.564 270.614 332.507 270.117L332.5 270V263H325.5C324.987 263 324.564 262.614 324.507 262.117L324.5 262C324.5 261.487 324.886 261.064 325.383 261.007L325.5 261H332.5V254C332.5 253.487 332.886 253.064 333.383 253.007L333.5 253L333.383 253.007Z" fill="#208CFB"/>
<path d="M140.5 263H156.504C157.056 263 157.504 262.552 157.504 262C157.504 261.448 157.056 261 156.504 261H140.5C139.948 261 139.5 261.448 139.5 262C139.5 262.552 139.948 263 140.5 263Z" fill="#838383"/>
<rect x="40.25" y="237.25" width="401.5" height="49.5" rx="9.75" stroke="#DEE7F4" stroke-width="0.5"/>
<rect x="40" y="311" width="402" height="50" rx="10" fill="#FFD720"/>
<path d="M228.502 333.71H230.86C230.826 331.636 229.121 330.205 226.53 330.205C223.979 330.205 222.11 331.614 222.121 333.727C222.116 335.443 223.326 336.426 225.292 336.898L226.559 337.216C227.826 337.523 228.53 337.886 228.536 338.67C228.53 339.523 227.724 340.102 226.474 340.102C225.195 340.102 224.275 339.511 224.195 338.347H221.814C221.877 340.864 223.678 342.165 226.502 342.165C229.343 342.165 231.013 340.807 231.019 338.676C231.013 336.739 229.553 335.71 227.53 335.256L226.485 335.006C225.474 334.773 224.627 334.398 224.644 333.562C224.644 332.812 225.309 332.261 226.513 332.261C227.689 332.261 228.411 332.795 228.502 333.71ZM236.766 342.17C238.925 342.17 240.379 341.119 240.72 339.5L238.482 339.352C238.237 340.017 237.612 340.364 236.805 340.364C235.595 340.364 234.828 339.562 234.828 338.261V338.256H240.771V337.591C240.771 334.625 238.976 333.159 236.669 333.159C234.101 333.159 232.436 334.983 232.436 337.676C232.436 340.443 234.078 342.17 236.766 342.17ZM234.828 336.756C234.879 335.761 235.635 334.966 236.709 334.966C237.76 334.966 238.487 335.716 238.493 336.756H234.828ZM245 342.165C246.289 342.165 247.125 341.602 247.551 340.79H247.619V342H249.914V336.114C249.914 334.034 248.153 333.159 246.21 333.159C244.119 333.159 242.744 334.159 242.409 335.75L244.647 335.932C244.812 335.352 245.329 334.926 246.198 334.926C247.022 334.926 247.494 335.341 247.494 336.057V336.091C247.494 336.653 246.897 336.727 245.38 336.875C243.653 337.034 242.102 337.614 242.102 339.562C242.102 341.29 243.335 342.165 245 342.165ZM245.693 340.494C244.948 340.494 244.414 340.148 244.414 339.483C244.414 338.801 244.977 338.466 245.829 338.347C246.358 338.273 247.221 338.148 247.511 337.955V338.881C247.511 339.795 246.755 340.494 245.693 340.494ZM251.952 342H254.373V337.062C254.373 335.989 255.157 335.25 256.225 335.25C256.56 335.25 257.02 335.307 257.248 335.381V333.233C257.032 333.182 256.731 333.148 256.486 333.148C255.509 333.148 254.708 333.716 254.39 334.795H254.299V333.273H251.952V342ZM262.196 342.17C264.52 342.17 265.98 340.807 266.094 338.801H263.81C263.668 339.733 263.054 340.256 262.224 340.256C261.094 340.256 260.361 339.307 260.361 337.636C260.361 335.989 261.099 335.045 262.224 335.045C263.111 335.045 263.679 335.631 263.81 336.5H266.094C265.991 334.483 264.463 333.159 262.185 333.159C259.537 333.159 257.901 334.994 257.901 337.67C257.901 340.324 259.508 342.17 262.196 342.17ZM270.224 336.955C270.23 335.83 270.917 335.17 271.906 335.17C272.889 335.17 273.468 335.801 273.463 336.875V342H275.883V336.443C275.889 334.398 274.684 333.159 272.866 333.159C271.542 333.159 270.656 333.784 270.258 334.812H270.156V330.364H267.803V342H270.224V336.955Z" fill="#132968"/>
<path d="M73.6506 404L74.6747 401.116H78.7912L79.8153 404H81.108L77.3693 393.818H76.0966L72.358 404H73.6506ZM75.0625 400.023L76.6932 395.429H76.7727L78.4034 400.023H75.0625ZM83.7081 393.818H82.5348V404H83.7081V393.818ZM91.2662 398.074C90.8983 396.99 90.073 396.264 88.5616 396.264C86.9508 396.264 85.7576 397.179 85.7576 398.472C85.7576 399.526 86.3841 400.232 87.786 400.56L89.0588 400.858C89.8294 401.037 90.1923 401.405 90.1923 401.932C90.1923 402.588 89.4963 403.125 88.4025 403.125C87.443 403.125 86.8414 402.712 86.6326 401.892L85.519 402.17C85.7924 403.468 86.8613 404.159 88.4224 404.159C90.1973 404.159 91.4054 403.19 91.4054 401.872C91.4054 400.808 90.7392 400.137 89.377 399.804L88.2434 399.526C87.3386 399.302 86.9309 398.999 86.9309 398.412C86.9309 397.756 87.627 397.278 88.5616 397.278C89.5858 397.278 90.0083 397.845 90.2122 398.372L91.2662 398.074ZM96.2738 404.159C98.342 404.159 99.734 402.588 99.734 400.222C99.734 397.835 98.342 396.264 96.2738 396.264C94.2056 396.264 92.8136 397.835 92.8136 400.222C92.8136 402.588 94.2056 404.159 96.2738 404.159ZM96.2738 403.105C94.7028 403.105 93.9869 401.753 93.9869 400.222C93.9869 398.69 94.7028 397.318 96.2738 397.318C97.8448 397.318 98.5607 398.69 98.5607 400.222C98.5607 401.753 97.8448 403.105 96.2738 403.105ZM108.863 396.364H107.153V395.588C107.153 394.832 107.471 394.435 108.247 394.435C108.585 394.435 108.784 394.514 108.903 394.554L109.241 393.54C109.062 393.46 108.704 393.341 108.127 393.341C107.034 393.341 105.98 393.997 105.98 395.31V396.364H104.747V397.358H105.98V404H107.153V397.358H108.863V396.364ZM110.507 404H111.681V396.364H110.507V404ZM111.104 395.091C111.561 395.091 111.939 394.733 111.939 394.295C111.939 393.858 111.561 393.5 111.104 393.5C110.647 393.5 110.269 393.858 110.269 394.295C110.269 394.733 110.647 395.091 111.104 395.091ZM115.003 399.406C115.003 398.074 115.828 397.318 116.952 397.318C118.041 397.318 118.702 398.029 118.702 399.227V404H119.875V399.148C119.875 397.199 118.836 396.264 117.29 396.264C116.137 396.264 115.421 396.781 115.063 397.557H114.963V396.364H113.83V404H115.003V399.406ZM124.903 404.159C126.374 404.159 126.871 403.244 127.13 402.827H127.269V404H128.403V393.818H127.229V397.577H127.13C126.871 397.179 126.414 396.264 124.923 396.264C122.994 396.264 121.661 397.795 121.661 400.202C121.661 402.628 122.994 404.159 124.903 404.159ZM125.062 403.105C123.59 403.105 122.835 401.812 122.835 400.182C122.835 398.571 123.57 397.318 125.062 397.318C126.494 397.318 127.249 398.472 127.249 400.182C127.249 401.912 126.474 403.105 125.062 403.105ZM136.899 404.179C138.232 404.179 138.928 403.463 139.166 402.966H139.226V404H140.399V398.969C140.399 396.543 138.55 396.264 137.575 396.264C136.422 396.264 135.109 396.662 134.513 398.054L135.626 398.452C135.885 397.895 136.496 397.298 137.615 397.298C138.694 397.298 139.226 397.87 139.226 398.849V398.889C139.226 399.456 138.649 399.406 137.257 399.585C135.84 399.769 134.294 400.082 134.294 401.832C134.294 403.324 135.447 404.179 136.899 404.179ZM137.078 403.125C136.143 403.125 135.467 402.707 135.467 401.892C135.467 400.997 136.283 400.719 137.197 400.599C137.695 400.54 139.027 400.401 139.226 400.162V401.236C139.226 402.19 138.47 403.125 137.078 403.125ZM146.478 406.864H147.651V402.827H147.751C148.009 403.244 148.507 404.159 149.978 404.159C151.887 404.159 153.22 402.628 153.22 400.202C153.22 397.795 151.887 396.264 149.958 396.264C148.467 396.264 148.009 397.179 147.751 397.577H147.612V396.364H146.478V406.864ZM147.632 400.182C147.632 398.472 148.387 397.318 149.819 397.318C151.311 397.318 152.046 398.571 152.046 400.182C152.046 401.812 151.291 403.105 149.819 403.105C148.407 403.105 147.632 401.912 147.632 400.182ZM156.183 393.818H155.009V404H156.183V393.818ZM160.579 404.179C161.911 404.179 162.607 403.463 162.846 402.966H162.906V404H164.079V398.969C164.079 396.543 162.229 396.264 161.255 396.264C160.102 396.264 158.789 396.662 158.192 398.054L159.306 398.452C159.565 397.895 160.176 397.298 161.295 397.298C162.374 397.298 162.906 397.87 162.906 398.849V398.889C162.906 399.456 162.329 399.406 160.937 399.585C159.52 399.769 157.974 400.082 157.974 401.832C157.974 403.324 159.127 404.179 160.579 404.179ZM160.758 403.125C159.823 403.125 159.147 402.707 159.147 401.892C159.147 400.997 159.962 400.719 160.877 400.599C161.374 400.54 162.707 400.401 162.906 400.162V401.236C162.906 402.19 162.15 403.125 160.758 403.125ZM169.323 404.159C171.013 404.159 172.127 403.125 172.325 401.773H171.152C170.933 402.608 170.237 403.105 169.323 403.105C167.931 403.105 167.036 401.952 167.036 400.182C167.036 398.452 167.95 397.318 169.323 397.318C170.357 397.318 170.973 397.955 171.152 398.651H172.325C172.127 397.219 170.914 396.264 169.303 396.264C167.235 396.264 165.862 397.895 165.862 400.222C165.862 402.509 167.175 404.159 169.323 404.159ZM177.242 404.159C178.794 404.159 179.927 403.384 180.285 402.23L179.151 401.912C178.853 402.707 178.162 403.105 177.242 403.105C175.865 403.105 174.916 402.215 174.861 400.58H180.404V400.082C180.404 397.239 178.714 396.264 177.123 396.264C175.055 396.264 173.683 397.895 173.683 400.241C173.683 402.588 175.035 404.159 177.242 404.159ZM174.861 399.565C174.941 398.377 175.781 397.318 177.123 397.318C178.396 397.318 179.211 398.273 179.211 399.565H174.861ZM189.448 396.364H187.817V394.534H186.644V396.364H185.49V397.358H186.644V402.131C186.644 403.463 187.718 404.099 188.712 404.099C189.149 404.099 189.428 404.02 189.587 403.96L189.348 402.906C189.249 402.926 189.09 402.966 188.831 402.966C188.314 402.966 187.817 402.807 187.817 401.812V397.358H189.448V396.364ZM194.233 404.159C196.301 404.159 197.693 402.588 197.693 400.222C197.693 397.835 196.301 396.264 194.233 396.264C192.165 396.264 190.773 397.835 190.773 400.222C190.773 402.588 192.165 404.159 194.233 404.159ZM194.233 403.105C192.662 403.105 191.946 401.753 191.946 400.222C191.946 398.69 192.662 397.318 194.233 397.318C195.804 397.318 196.52 398.69 196.52 400.222C196.52 401.753 195.804 403.105 194.233 403.105ZM203.422 404H204.595V399.168C204.595 398.134 205.41 397.378 206.524 397.378C206.837 397.378 207.16 397.438 207.24 397.457V396.264C207.105 396.254 206.797 396.244 206.623 396.244C205.708 396.244 204.913 396.761 204.635 397.517H204.555V396.364H203.422V404ZM211.6 404.159C213.151 404.159 214.284 403.384 214.642 402.23L213.509 401.912C213.211 402.707 212.52 403.105 211.6 403.105C210.223 403.105 209.273 402.215 209.218 400.58H214.762V400.082C214.762 397.239 213.071 396.264 211.48 396.264C209.412 396.264 208.04 397.895 208.04 400.241C208.04 402.588 209.392 404.159 211.6 404.159ZM209.218 399.565C209.298 398.377 210.138 397.318 211.48 397.318C212.753 397.318 213.569 398.273 213.569 399.565H209.218ZM221.956 398.074C221.588 396.99 220.762 396.264 219.251 396.264C217.64 396.264 216.447 397.179 216.447 398.472C216.447 399.526 217.074 400.232 218.475 400.56L219.748 400.858C220.519 401.037 220.882 401.405 220.882 401.932C220.882 402.588 220.186 403.125 219.092 403.125C218.132 403.125 217.531 402.712 217.322 401.892L216.208 402.17C216.482 403.468 217.551 404.159 219.112 404.159C220.887 404.159 222.095 403.19 222.095 401.872C222.095 400.808 221.429 400.137 220.066 399.804L218.933 399.526C218.028 399.302 217.62 398.999 217.62 398.412C217.62 397.756 218.316 397.278 219.251 397.278C220.275 397.278 220.698 397.845 220.902 398.372L221.956 398.074ZM227.182 396.364H225.551V394.534H224.378V396.364H223.225V397.358H224.378V402.131C224.378 403.463 225.452 404.099 226.446 404.099C226.884 404.099 227.162 404.02 227.321 403.96L227.083 402.906C226.983 402.926 226.824 402.966 226.566 402.966C226.048 402.966 225.551 402.807 225.551 401.812V397.358H227.182V396.364ZM235.987 404.159C238.055 404.159 239.447 402.588 239.447 400.222C239.447 397.835 238.055 396.264 235.987 396.264C233.919 396.264 232.526 397.835 232.526 400.222C232.526 402.588 233.919 404.159 235.987 404.159ZM235.987 403.105C234.416 403.105 233.7 401.753 233.7 400.222C233.7 398.69 234.416 397.318 235.987 397.318C237.558 397.318 238.274 398.69 238.274 400.222C238.274 401.753 237.558 403.105 235.987 403.105ZM242.411 399.406C242.411 398.074 243.237 397.318 244.36 397.318C245.449 397.318 246.11 398.029 246.11 399.227V404H247.283V399.148C247.283 397.199 246.244 396.264 244.698 396.264C243.545 396.264 242.829 396.781 242.471 397.557H242.371V396.364H241.238V404H242.411V399.406ZM253.524 404H257.203C259.609 404 260.604 402.827 260.604 401.295C260.604 399.685 259.49 398.81 258.555 398.75V398.651C259.43 398.412 260.206 397.835 260.206 396.523C260.206 395.031 259.211 393.818 257.084 393.818H253.524V404ZM254.757 402.906V399.366H257.263C258.595 399.366 259.43 400.261 259.43 401.295C259.43 402.19 258.814 402.906 257.203 402.906H254.757ZM254.757 398.293V394.912H257.084C258.436 394.912 259.032 395.628 259.032 396.523C259.032 397.597 258.157 398.293 257.044 398.293H254.757ZM265.573 404.159C267.641 404.159 269.033 402.588 269.033 400.222C269.033 397.835 267.641 396.264 265.573 396.264C263.504 396.264 262.112 397.835 262.112 400.222C262.112 402.588 263.504 404.159 265.573 404.159ZM265.573 403.105C264.002 403.105 263.286 401.753 263.286 400.222C263.286 398.69 264.002 397.318 265.573 397.318C267.144 397.318 267.86 398.69 267.86 400.222C267.86 401.753 267.144 403.105 265.573 403.105ZM273.926 404.159C275.994 404.159 277.386 402.588 277.386 400.222C277.386 397.835 275.994 396.264 273.926 396.264C271.858 396.264 270.466 397.835 270.466 400.222C270.466 402.588 271.858 404.159 273.926 404.159ZM273.926 403.105C272.355 403.105 271.639 401.753 271.639 400.222C271.639 398.69 272.355 397.318 273.926 397.318C275.497 397.318 276.213 398.69 276.213 400.222C276.213 401.753 275.497 403.105 273.926 403.105ZM279.177 404H280.351V401.141L281.171 400.381L284.03 404H285.521L282.056 399.625L285.282 396.364H283.831L280.49 399.764H280.351V393.818H279.177V404ZM286.793 404H287.966V396.364H286.793V404ZM287.389 395.091C287.847 395.091 288.224 394.733 288.224 394.295C288.224 393.858 287.847 393.5 287.389 393.5C286.932 393.5 286.554 393.858 286.554 394.295C286.554 394.733 286.932 395.091 287.389 395.091ZM291.288 399.406C291.288 398.074 292.113 397.318 293.237 397.318C294.326 397.318 294.987 398.029 294.987 399.227V404H296.16V399.148C296.16 397.199 295.121 396.264 293.575 396.264C292.422 396.264 291.706 396.781 291.348 397.557H291.248V396.364H290.115V404H291.288V399.406ZM301.387 407.023C303.216 407.023 304.688 406.188 304.688 404.219V396.364H303.554V397.577H303.435C303.176 397.179 302.699 396.264 301.208 396.264C299.279 396.264 297.946 397.795 297.946 400.142C297.946 402.528 299.338 403.881 301.188 403.881C302.679 403.881 303.157 403.006 303.415 402.588H303.515V404.139C303.515 405.412 302.62 405.989 301.387 405.989C300 405.989 299.512 405.258 299.199 404.835L298.265 405.491C298.742 406.292 299.681 407.023 301.387 407.023ZM301.347 402.827C299.875 402.827 299.12 401.713 299.12 400.122C299.12 398.571 299.855 397.318 301.347 397.318C302.779 397.318 303.534 398.472 303.534 400.122C303.534 401.812 302.759 402.827 301.347 402.827ZM307.691 404.08C308.183 404.08 308.586 403.677 308.586 403.185C308.586 402.692 308.183 402.29 307.691 402.29C307.199 402.29 306.796 402.692 306.796 403.185C306.796 403.677 307.199 404.08 307.691 404.08ZM313.793 404.159C315.484 404.159 316.597 403.125 316.796 401.773H315.623C315.404 402.608 314.708 403.105 313.793 403.105C312.401 403.105 311.506 401.952 311.506 400.182C311.506 398.452 312.421 397.318 313.793 397.318C314.827 397.318 315.444 397.955 315.623 398.651H316.796C316.597 397.219 315.384 396.264 313.773 396.264C311.705 396.264 310.333 397.895 310.333 400.222C310.333 402.509 311.646 404.159 313.793 404.159ZM321.614 404.159C323.682 404.159 325.074 402.588 325.074 400.222C325.074 397.835 323.682 396.264 321.614 396.264C319.545 396.264 318.153 397.835 318.153 400.222C318.153 402.588 319.545 404.159 321.614 404.159ZM321.614 403.105C320.043 403.105 319.327 401.753 319.327 400.222C319.327 398.69 320.043 397.318 321.614 397.318C323.185 397.318 323.901 398.69 323.901 400.222C323.901 401.753 323.185 403.105 321.614 403.105ZM326.865 404H328.038V399.227C328.038 398.109 328.854 397.318 329.768 397.318C330.658 397.318 331.28 397.9 331.28 398.77V404H332.473V399.028C332.473 398.044 333.089 397.318 334.163 397.318C334.998 397.318 335.714 397.761 335.714 398.889V404H336.888V398.889C336.888 397.094 335.923 396.264 334.561 396.264C333.467 396.264 332.667 396.766 332.274 397.557H332.194C331.817 396.741 331.15 396.264 330.146 396.264C329.152 396.264 328.416 396.741 328.098 397.557H327.998V396.364H326.865V404Z" fill="#132968"/>
<path fill-rule="evenodd" clip-rule="evenodd" d="M64 398C64 401.183 62.7357 404.235 60.4853 406.485C58.2348 408.736 55.1826 410 52 410C48.8174 410 45.7652 408.736 43.5147 406.485C41.2643 404.235 40 401.183 40 398C40 394.817 41.2643 391.765 43.5147 389.515C45.7652 387.264 48.8174 386 52 386C55.1826 386 58.2348 387.264 60.4853 389.515C62.7357 391.765 64 394.817 64 398ZM58.045 393.455C57.9379 393.348 57.8103 393.264 57.6699 393.208C57.5295 393.151 57.3792 393.124 57.228 393.127C57.0768 393.13 56.9277 393.164 56.7897 393.226C56.6518 393.288 56.5277 393.377 56.425 393.488L51.2155 400.125L48.076 396.984C47.8627 396.786 47.5807 396.678 47.2892 396.683C46.9978 396.688 46.7197 396.806 46.5136 397.012C46.3074 397.218 46.1894 397.496 46.1842 397.788C46.1791 398.079 46.2873 398.361 46.486 398.575L50.455 402.545C50.5619 402.652 50.6892 402.736 50.8294 402.792C50.9695 402.849 51.1196 402.876 51.2706 402.874C51.4217 402.871 51.5706 402.838 51.7085 402.776C51.8465 402.714 51.9706 402.626 52.0735 402.515L58.0615 395.03C58.2656 394.818 58.3784 394.534 58.3756 394.239C58.3728 393.945 58.2546 393.663 58.0465 393.455H58.045Z" fill="#178737"/>
<defs>
<filter id="filter0_d_1144_39338" x="-14" y="0" width="510" height="479" filterUnits="userSpaceOnUse" color-interpolation-filters="sRGB">
<feFlood flood-opacity="0" result="BackgroundImageFix"/>
<feColorMatrix in="SourceAlpha" type="matrix" values="0 0 0 0 0 0 0 0 0 0 0 0 0 0 0 0 0 0 127 0" result="hardAlpha"/>
<feOffset dy="15"/>
<feGaussianBlur stdDeviation="15"/>
<feColorMatrix type="matrix" values="0 0 0 0 0.0745098 0 0 0 0 0.160784 0 0 0 0 0.407843 0 0 0 0.2 0"/>
<feBlend mode="normal" in2="BackgroundImageFix" result="effect1_dropShadow_1144_39338"/>
<feBlend mode="normal" in="SourceGraphic" in2="effect1_dropShadow_1144_39338" result="shape"/>
</filter>
<filter id="filter1_i_1144_39338" x="200.5" y="239" width="89" height="48" filterUnits="userSpaceOnUse" color-interpolation-filters="sRGB">
<feFlood flood-opacity="0" result="BackgroundImageFix"/>
<feBlend mode="normal" in="SourceGraphic" in2="BackgroundImageFix" result="shape"/>
<feColorMatrix in="SourceAlpha" type="matrix" values="0 0 0 0 0 0 0 0 0 0 0 0 0 0 0 0 0 0 127 0" result="hardAlpha"/>
<feOffset dy="2"/>
<feGaussianBlur stdDeviation="3"/>
<feComposite in2="hardAlpha" operator="arithmetic" k2="-1" k3="1"/>
<feColorMatrix type="matrix" values="0 0 0 0 0.0745098 0 0 0 0 0.160784 0 0 0 0 0.407843 0 0 0 0.2 0"/>
<feBlend mode="normal" in2="shape" result="effect1_innerShadow_1144_39338"/>
</filter>
</defs>
</svg>
