<svg width="150" height="34" viewBox="0 0 150 34" fill="none" xmlns="http://www.w3.org/2000/svg">
<path d="M36.197 8.42139C39.6999 8.42139 42.6353 9.64009 45.003 12.0775C46.1523 13.2294 47.0585 14.6003 47.6682 16.1089C48.2778 17.6175 48.5784 19.2331 48.5521 20.86C48.5521 24.3037 47.3691 27.2243 45.003 29.6216C42.637 32.019 39.7017 33.2168 36.197 33.2151C32.6697 33.2151 29.7283 32.0173 27.3727 29.6216C25.0171 27.226 23.8402 24.3055 23.842 20.86C23.8153 19.2347 24.114 17.6204 24.7203 16.1122C25.3267 14.6039 26.2285 13.2321 27.3727 12.0775C29.7266 9.63835 32.668 8.41965 36.197 8.42139ZM36.197 13.7149C34.1809 13.7149 32.5496 14.4113 31.3031 15.8041C30.0618 17.1865 29.3932 18.9895 29.4332 20.847C29.3976 21.7615 29.5426 22.6742 29.8599 23.5327C30.1771 24.3913 30.6604 25.1789 31.2822 25.8506C32.5409 27.2225 34.1792 27.9085 36.197 27.9085C38.187 27.9381 39.8122 27.2591 41.0727 25.8715C42.3265 24.5037 43.0039 22.7046 42.9634 20.8496C43.0017 18.9886 42.325 17.1838 41.0727 15.8067C39.8035 14.4105 38.1783 13.7132 36.197 13.7149Z" fill="#F1F3F6"/>
<path d="M75.5312 13.5291C73.9904 13.5291 72.8414 14.0679 72.084 15.1456C71.3267 16.2233 70.9489 17.8137 70.9506 19.9168V32.2719H65.3594V18.6554C65.3594 15.4363 66.2299 12.8936 67.9709 11.0272C69.7075 9.16522 72.7003 8.23291 75.5599 8.23291C78.4169 8.23291 81.4097 9.16522 83.1464 11.0272C84.883 12.8892 85.7579 15.4355 85.7579 18.6554V32.2719H80.1692V19.9168C80.1692 17.8154 79.7906 16.225 79.0332 15.1456C78.2759 14.0662 77.1277 13.5273 75.5887 13.5291" fill="#F1F3F6"/>
<path d="M60.6931 13.5291C59.1524 13.5291 58.0033 14.0679 57.246 15.1456C56.4886 16.2233 56.1108 17.8137 56.1126 19.9168V32.2719H50.5239V18.6554C50.5239 15.4363 51.3944 12.8936 53.1354 11.0272C54.8721 9.16522 57.8649 8.23291 60.7088 8.23291C63.5658 8.23291 66.5586 9.16522 68.2979 11.0272C70.0371 12.8892 70.9094 15.4355 70.9094 18.6554V32.2719H65.3207V19.9168C65.3207 17.8154 64.9429 16.225 64.1873 15.1456C63.4317 14.0662 62.2827 13.5273 60.7402 13.5291" fill="#F1F3F6"/>
<path d="M127.438 8.42139C130.941 8.42139 133.875 9.64009 136.241 12.0775C137.391 13.2289 138.298 14.5996 138.908 16.1083C139.518 17.617 139.819 19.2329 139.793 20.86C139.793 24.3037 138.609 27.2243 136.241 29.6216C133.873 32.019 130.939 33.2168 127.438 33.2151C123.907 33.2151 120.966 32.0173 118.613 29.6216C116.261 27.226 115.084 24.3055 115.083 20.86C115.056 19.2347 115.355 17.6204 115.961 16.1122C116.567 14.6039 117.469 13.2321 118.613 12.0775C120.967 9.63835 123.909 8.41965 127.438 8.42139ZM127.438 13.7149C125.422 13.7149 123.789 14.4113 122.541 15.8041C121.301 17.1873 120.633 18.9898 120.671 20.847C120.602 22.6937 121.267 24.4928 122.52 25.8506C123.781 27.2225 125.42 27.9085 127.438 27.9085C129.428 27.9381 131.053 27.2591 132.313 25.8715C133.567 24.5037 134.245 22.7046 134.204 20.8496C134.242 18.9886 133.566 17.1838 132.313 15.8067C131.051 14.4105 129.426 13.7132 127.438 13.7149Z" fill="#F1F3F6"/>
<path d="M93.9893 32.4126H88.2988L88.419 1.04053H93.8692L93.9893 32.4126Z" fill="#F1F3F6"/>
<path d="M100.758 8.42139C104.261 8.42139 107.196 9.64009 109.562 12.0775C110.711 13.2293 111.618 14.6 112.228 16.1086C112.838 17.6172 113.139 19.2329 113.113 20.86C113.113 24.3037 111.929 27.2243 109.562 29.6216C107.194 32.019 104.259 33.2168 100.758 33.2151C97.2275 33.2151 94.2852 32.0173 91.9314 29.6216C89.5776 27.226 88.4015 24.3055 88.4032 20.86C88.3748 19.2356 88.6713 17.6218 89.2754 16.1136C89.8795 14.6054 90.7789 13.2331 91.9209 12.0775C94.2835 9.63835 97.2293 8.41965 100.758 8.42139ZM100.758 13.7149C98.7405 13.7149 97.1083 14.4113 95.8617 15.8041C94.6218 17.1873 93.9535 18.9898 93.9919 20.847C93.956 21.7614 94.1005 22.6739 94.4173 23.5324C94.7341 24.391 95.2169 25.1787 95.8382 25.8506C97.1004 27.2225 98.7396 27.9085 100.756 27.9085C102.744 27.9381 104.368 27.2591 105.629 25.8715C106.883 24.5037 107.56 22.7046 107.519 20.8496C107.558 18.9886 106.881 17.1838 105.629 15.8067C104.372 14.4105 102.748 13.7132 100.758 13.7149Z" fill="#F1F3F6"/>
<path d="M6.88516 0.829102H1.30176V32.1855H6.88516V0.829102Z" fill="#F1F3F6"/>
<path d="M16.9945 15.2159C17.2557 14.9939 17.5011 14.7641 17.7492 14.5186C21.1102 11.1759 22.8156 6.57181 22.8156 0.829102H17.2322C17.2322 6.37072 15.2291 10.2749 11.2779 12.4347C11.1526 12.5025 11.0168 12.5652 10.9019 12.6279C13.0653 13.1374 15.1258 14.0126 16.9945 15.2159V15.2159Z" fill="#F1F3F6"/>
<path d="M23.6381 32.2015L18.0573 32.1807C17.9605 29.9251 17.3638 27.7191 16.3102 25.7224C14.1504 21.7686 10.2436 19.7655 4.69678 19.7655V14.1821C10.4421 14.1821 15.0436 15.8874 18.3863 19.2511C23.625 24.5133 23.6407 31.8908 23.6381 32.2015Z" fill="#F1F3F6"/>
<path d="M144.535 32.9508C146.821 32.9508 148.674 31.0976 148.674 28.8116C148.674 26.5256 146.821 24.6724 144.535 24.6724C142.249 24.6724 140.396 26.5256 140.396 28.8116C140.396 31.0976 142.249 32.9508 144.535 32.9508Z" fill="#FFD720"/>
</svg>
