<svg width="12" height="12" viewBox="0 0 12 12" fill="none" xmlns="http://www.w3.org/2000/svg">
<path d="M7.65375 8.17125L8.16 7.665L6.37125 5.865V3.60375H5.69625V6.135L7.65375 8.17125ZM6 10.5C5.385 10.5 4.80375 10.3819 4.25625 10.1456C3.70875 9.90937 3.23062 9.58687 2.82187 9.17812C2.41312 8.76937 2.09062 8.29125 1.85437 7.74375C1.61812 7.19625 1.5 6.615 1.5 6C1.5 5.385 1.61812 4.80375 1.85437 4.25625C2.09062 3.70875 2.41312 3.23062 2.82187 2.82187C3.23062 2.41312 3.70875 2.09062 4.25625 1.85437C4.80375 1.61812 5.385 1.5 6 1.5C6.615 1.5 7.19625 1.61812 7.74375 1.85437C8.29125 2.09062 8.76937 2.41312 9.17812 2.82187C9.58687 3.23062 9.90937 3.70875 10.1456 4.25625C10.3819 4.80375 10.5 5.385 10.5 6C10.5 6.615 10.3819 7.19625 10.1456 7.74375C9.90937 8.29125 9.58687 8.76937 9.17812 9.17812C8.76937 9.58687 8.29125 9.90937 7.74375 10.1456C7.19625 10.3819 6.615 10.5 6 10.5ZM6 9.825C7.05 9.825 7.95 9.45 8.7 8.7C9.45 7.95 9.825 7.05 9.825 6C9.825 4.95 9.45 4.05 8.7 3.3C7.95 2.55 7.05 2.175 6 2.175C4.95 2.175 4.05 2.55 3.3 3.3C2.55 4.05 2.175 4.95 2.175 6C2.175 7.05 2.55 7.95 3.3 8.7C4.05 9.45 4.95 9.825 6 9.825Z" fill="#838383"/>
</svg>
