<svg width="125" height="11" viewBox="0 0 125 11" fill="none" xmlns="http://www.w3.org/2000/svg">
<path d="M118.305 3.8147e-06L112.69 8.30517C111.952 9.39708 110.752 10.4501 109.304 10.562V10.8172H115.549C117.207 10.8172 118.416 9.71393 119.234 8.49877L125 3.8147e-06H118.306H118.305Z" fill="#FF0000"/>
<path d="M14.9026 10.8171V0.912287H17.7293V10.8171H14.9019H14.9026ZM80.0962 10.8171L73.3039 4.93558V10.8171H70.9169V0.912287H72.9446L79.6465 6.70139V0.912287H82.0334V10.8171H80.0962ZM94.8677 4.10761C93.5904 3.46453 92.1514 2.94403 90.2441 2.94403C87.9662 2.94403 86.2678 4.14847 86.2678 5.82317C86.2678 7.53873 87.9968 8.75457 90.2235 8.75457C92.0622 8.75457 93.5192 8.27426 94.9575 7.42619V9.87728C93.6888 10.5204 92.0017 11 90.1037 11C86.2286 11 83.181 8.97898 83.181 5.82317C83.181 2.71895 86.2878 0.7274 90.0931 0.7274C91.8913 0.7274 93.5192 1.0744 94.8677 1.6371V4.10761ZM33.4607 10.8171V0.912287H42.9094V3.0358H36.2874V5.49694H42.7604V7.62113H36.2874V10.8178H33.4607V10.8171ZM96.5767 10.8171V0.912287H106.385V3.0358H99.4027V4.75204H106.275V6.87555H99.4027V8.69361H106.355V10.8171H96.5767ZM52.728 7.09996L56.6331 10.8178H53.6168C52.9476 10.8178 52.5085 10.6034 52.1586 10.2551L49.5015 7.62046C49.4705 7.59244 49.4344 7.57085 49.3951 7.55694C49.3558 7.54303 49.3142 7.53707 49.2726 7.5394H47.4645V10.8171H44.6378V0.912287H50.7608C53.9368 0.912287 55.2753 2.37262 55.2753 3.98569C55.2753 5.86471 53.6368 6.76234 52.728 7.10063V7.09996ZM50.4715 5.46613C51.5891 5.46613 52.1286 4.88467 52.1286 4.23087C52.1286 3.57707 51.6496 3.0358 50.4715 3.0358H47.4645V5.46613H50.4715ZM28.4659 7.10063L32.371 10.8171H29.3554C28.6861 10.8171 28.2464 10.6028 27.8971 10.2551L25.2401 7.62046C25.209 7.59238 25.1727 7.57077 25.1334 7.55686C25.094 7.54295 25.0522 7.53702 25.0106 7.5394H23.203V10.8171H20.3757V0.912287H26.4988C29.6747 0.912287 31.0139 2.37262 31.0139 3.98569C31.0139 5.86471 29.3753 6.76234 28.4659 7.10063ZM26.2094 5.46613C27.3283 5.46613 27.8679 4.88467 27.8679 4.23087C27.8679 3.57707 27.3882 3.0358 26.2094 3.0358H23.203V5.46613H26.2094ZM10.4773 10.8171L9.23921 8.64203H3.82598L2.69703 10.8171H6.10352e-05L5.394 0.922335H7.85148L13.9646 10.8171H10.4773ZM4.90437 6.5788H8.06103L6.42249 3.5563L4.90437 6.5788ZM66.9214 10.8171L65.7126 8.64203H60.4404L59.3514 10.8171H56.7236L61.9771 0.922335H64.3641L70.3075 10.8171H66.9214ZM61.4982 6.5788H64.5743L62.9764 3.5563L61.4982 6.5788Z" fill="#051039"/>
</svg>
