<svg width="61" height="12" viewBox="0 0 61 12" fill="none" xmlns="http://www.w3.org/2000/svg">
<g clip-path="url(#clip0_17_333)">
<path fill-rule="evenodd" clip-rule="evenodd" d="M32.0475 5.90013C32.0475 4.3433 32.0473 2.78646 32.0475 1.22963C32.0476 0.671907 32.5693 0.178188 33.1643 0.177713C34.8331 0.176476 36.5021 0.16542 38.1708 0.182251C39.0091 0.190707 39.7924 0.402328 40.4608 0.910816C40.8814 1.23082 41.1778 1.63499 41.3713 2.10802C41.5816 2.62206 41.6499 3.1589 41.6246 3.70439C41.601 4.21055 41.5105 4.70615 41.2531 5.16175C41.1484 5.34718 41.0265 5.52159 40.8724 5.67327C40.8168 5.72803 40.8198 5.75404 40.8836 5.7995C41.4103 6.1751 41.7363 6.68138 41.9284 7.26733C42.0542 7.65077 42.0838 8.04771 42.0741 8.44826C42.0614 8.97119 41.9611 9.47526 41.7249 9.95112C41.4146 10.5762 40.919 11.0243 40.2521 11.3026C39.8225 11.4819 39.3705 11.5736 38.901 11.6002C38.7335 11.6096 38.5665 11.6118 38.3994 11.6119C36.6613 11.6129 34.9232 11.6125 33.1851 11.6125C32.6839 11.6125 32.2345 11.29 32.0875 10.8334C32.0594 10.7458 32.0477 10.6598 32.0477 10.5706C32.0474 9.0138 32.0475 7.45697 32.0475 5.90013ZM36.2321 6.78601C35.7002 6.78601 35.1682 6.78814 34.6363 6.78395C34.5425 6.78321 34.5209 6.81196 34.5213 6.89537C34.5246 7.4898 34.5213 8.08434 34.5237 8.67882C34.526 9.27703 35.0287 9.74785 35.6614 9.7481C36.35 9.74839 37.0386 9.74717 37.7272 9.74882C37.9037 9.74928 38.0736 9.72358 38.2411 9.67092C39.0223 9.42531 39.4727 8.62676 39.2371 7.85055C39.039 7.19791 38.4209 6.77217 37.7185 6.7844C37.2232 6.79307 36.7276 6.78609 36.2321 6.78601ZM36.1356 2.04162C35.5769 2.04162 35.1142 2.04513 34.6517 2.03905C34.5418 2.0376 34.52 2.07149 34.5209 2.16734C34.5256 2.66896 34.5231 3.17062 34.5231 3.67226C34.5231 3.77192 34.5329 3.86903 34.5587 3.96741C34.6604 4.35574 35.0319 4.66085 35.4552 4.67591C36.1105 4.69918 36.7663 4.68261 37.4219 4.6836C37.5747 4.68381 37.7255 4.66215 37.872 4.61451C38.5444 4.39567 38.9331 3.7212 38.7825 3.08048C38.6519 2.52555 38.1448 2.08746 37.5471 2.05262C37.0451 2.02333 36.542 2.05027 36.1356 2.04162H36.1356Z" fill="#73D602"/>
<path fill-rule="evenodd" clip-rule="evenodd" d="M51.7575 4.32979C51.7575 5.65671 51.7588 6.98361 51.757 8.31053C51.7561 8.90736 51.6596 9.48513 51.3642 10.0232C51.0405 10.6131 50.5573 11.0468 49.9313 11.3436C49.4177 11.5871 48.8716 11.7169 48.3003 11.7623C47.5255 11.8238 46.7496 11.7934 45.9742 11.7869C45.5094 11.783 45.0522 11.7165 44.6092 11.5863C43.5893 11.2864 42.8176 10.7161 42.4091 9.75809C42.2347 9.34921 42.1491 8.92444 42.1488 8.48531C42.1472 6.0893 42.1521 3.69328 42.1448 1.29729C42.1429 0.674141 42.6837 0.170294 43.3343 0.176894C43.7497 0.181081 44.1653 0.180297 44.5807 0.175657C44.6793 0.174563 44.709 0.198386 44.7089 0.295637C44.7058 2.83946 44.7072 5.3833 44.7055 7.92712C44.7053 8.2363 44.7433 8.53661 44.8972 8.81403C45.0975 9.17533 45.4139 9.41067 45.8183 9.5422C46.0781 9.6267 46.3471 9.66806 46.6225 9.66657C46.9104 9.66501 47.1993 9.67633 47.4859 9.65698C47.9261 9.62728 48.336 9.50646 48.6744 9.22172C48.9577 8.98337 49.1127 8.67938 49.1728 8.33085C49.1974 8.18859 49.1997 8.0439 49.1996 7.89921C49.1984 5.69225 49.1988 3.48533 49.1988 1.27839C49.1988 0.679091 49.7177 0.182587 50.353 0.178214C50.7831 0.175285 51.2132 0.179864 51.6432 0.175801C51.7349 0.174935 51.7596 0.201707 51.7594 0.287098C51.7567 1.63462 51.7575 2.98217 51.7575 4.32971L51.7575 4.32979Z" fill="#73D602"/>
<path fill-rule="evenodd" clip-rule="evenodd" d="M0.987834 0.177519C1.67271 0.177725 2.35758 0.178034 3.04246 0.178076C5.39619 0.178179 7.74993 0.178179 10.1037 0.17822C10.1058 0.205095 10.1098 0.23195 10.1098 0.258867C10.1104 0.71676 10.1106 1.17469 10.1108 1.63261C10.1062 1.63679 10.1061 1.64102 10.1106 1.64535C10.0622 1.71094 10.0588 1.79105 10.0314 1.86345L10.024 1.89418C9.97734 1.93857 9.94525 1.99092 9.92791 2.05123C9.90943 2.05696 9.89889 2.06884 9.89671 2.08716C9.87593 2.09627 9.85741 2.10716 9.85769 2.13243L9.61495 2.34385C9.52503 2.38021 9.43476 2.41595 9.35413 2.4695L9.30956 2.47816C9.27282 2.46799 9.24505 2.48146 9.22183 2.50741L9.13457 2.517C9.03612 2.49588 8.93964 2.52678 8.84154 2.52669C7.12911 2.5248 5.41668 2.52519 3.70426 2.52583C3.6549 2.52583 3.60126 2.51207 3.55857 2.5507C3.54383 2.55318 3.52909 2.55571 3.51435 2.55823C3.44737 2.56495 3.39167 2.59117 3.351 2.64296C3.33949 2.65245 3.32799 2.66188 3.31649 2.67134C3.25685 2.67968 3.24513 2.72796 3.22486 2.76911C3.19232 2.79794 3.16595 2.82975 3.16691 2.87492C3.12875 2.89323 3.123 2.92236 3.13579 2.95773C3.13083 2.99135 3.12164 3.02493 3.12158 3.05855C3.1207 3.5986 3.12081 4.13864 3.12142 4.67871C3.12142 4.70201 3.12809 4.72538 3.13166 4.74873C3.14548 4.82381 3.20793 4.78553 3.24485 4.78559C5.00066 4.78773 6.75643 4.78745 8.51222 4.78761C8.5668 4.78761 8.62134 4.78992 8.67588 4.79116L8.68015 6.07252C8.66361 6.14747 8.63812 6.22112 8.64393 6.29923C8.64021 6.31961 8.63656 6.34001 8.63287 6.36039C8.55821 6.50079 8.47883 6.63859 8.38418 6.76816L8.38494 6.7674C8.36187 6.7742 8.34733 6.78848 8.34217 6.81092L8.34298 6.81018C8.31892 6.815 8.30427 6.82919 8.29741 6.8511L8.29828 6.8504C8.25126 6.8669 8.21238 6.89313 8.18544 6.93383L8.10562 6.98219C8.07925 6.98061 8.06403 6.99684 8.0492 7.01369L8.01823 7.02376C7.9675 7.04492 7.90539 7.04253 7.86695 7.08897C7.85214 7.09166 7.83732 7.09427 7.82251 7.09692C7.76684 7.08811 7.71689 7.10261 7.67031 7.13041C6.19146 7.13138 4.71261 7.13254 3.23378 7.13258C3.16595 7.13258 3.11884 7.13093 3.11902 7.22102C3.12197 8.65719 3.1212 10.0934 3.1216 11.5295C3.1216 11.5465 3.12549 11.5635 3.12757 11.5805L3.06227 11.6331C3.01892 11.6311 2.97558 11.6273 2.93222 11.6273C2.00233 11.6271 1.07244 11.6274 0.142555 11.6271C0.0992556 11.6271 0.0559124 11.6224 0.0125693 11.6198L0.000213623 11.3327C0.0025098 11.2229 0.00677418 11.113 0.00681792 11.0032C0.00751771 7.76684 0.00778007 4.53041 0.00812997 1.29399C0.00812997 1.22886 0.00847975 1.16374 0.00863283 1.09858C0.0755501 0.920707 0.141024 0.742253 0.257561 0.585827L0.406047 0.436909C0.443048 0.433093 0.466294 0.412529 0.481405 0.382003C0.487616 0.383385 0.491946 0.381322 0.494417 0.375815C0.521665 0.376888 0.534655 0.359933 0.545152 0.339926C0.551581 0.341576 0.556523 0.33972 0.559979 0.334357C0.645703 0.298221 0.737113 0.273305 0.813958 0.219719L0.844268 0.214934C0.897736 0.221534 0.947049 0.21415 0.987855 0.17756L0.987834 0.177519Z" fill="#73D602"/>
<path fill-rule="evenodd" clip-rule="evenodd" d="M57.8755 0.177854C58.7247 0.177854 59.5738 0.179504 60.4229 0.175627C60.5245 0.175173 60.5513 0.201244 60.5499 0.296288C60.544 0.677721 60.5368 1.05965 60.55 1.44075C60.5692 1.99998 60.0277 2.50865 59.4604 2.52066C58.7644 2.53536 58.0686 2.5247 57.3728 2.52814C56.7532 2.5312 56.1337 2.52616 55.5141 2.52959C54.991 2.53248 54.6204 2.76637 54.4114 3.21546C54.0889 3.90822 54.6571 4.72224 55.4623 4.7263C55.9834 4.72892 56.5051 4.71289 57.0256 4.72939C58.4308 4.77409 59.5367 5.32486 60.253 6.49092C60.5296 6.94126 60.6868 7.43146 60.6707 7.95981C60.6629 8.2166 60.6876 8.47298 60.6372 8.73026C60.5117 9.37255 60.2259 9.93782 59.7698 10.4285C59.316 10.9168 58.7579 11.2556 58.106 11.4552C57.7904 11.5519 57.4631 11.6104 57.1307 11.6114C55.7895 11.6155 54.4484 11.6133 53.1073 11.613C52.472 11.6129 51.9553 11.1327 51.9487 10.532C51.9445 10.1471 51.951 9.76205 51.9455 9.37713C51.9441 9.28266 51.9782 9.2642 52.0712 9.26435C53.7002 9.2669 55.3292 9.26723 56.9583 9.26565C57.4935 9.26515 57.8726 9.02855 58.0885 8.56853C58.3446 8.02257 58.0087 7.32125 57.407 7.1305C57.2501 7.08075 57.0901 7.05753 56.9244 7.05741C56.356 7.05699 55.7865 7.0744 55.2195 7.04668C54.3882 7.00599 53.6516 6.71869 53.0172 6.20484C52.5167 5.79954 52.1702 5.29726 51.9667 4.70906C51.8813 4.46196 51.8407 4.20465 51.8134 3.94359C51.779 3.61444 51.8102 3.29173 51.875 2.97273C51.9624 2.54302 52.1373 2.14186 52.3929 1.77464C52.8679 1.09234 53.5158 0.618009 54.3342 0.354618C54.6942 0.238701 55.0667 0.178267 55.4484 0.177999C56.2574 0.17738 57.0665 0.177854 57.8755 0.177854H57.8755Z" fill="#73D602"/>
<path fill-rule="evenodd" clip-rule="evenodd" d="M10.1942 0.177663L12.3113 0.178014C12.4544 0.229496 12.5975 0.280998 12.7406 0.332501C12.7442 0.338235 12.7494 0.34038 12.7563 0.338936C12.766 0.359438 12.7794 0.375073 12.8062 0.373629C12.8092 0.379528 12.8141 0.381879 12.8209 0.380642C12.8432 0.416365 12.8721 0.444623 12.9155 0.45706C12.9174 0.462711 12.9214 0.465145 12.9277 0.46432C12.9684 0.517122 13.0083 0.570543 13.0653 0.60965C13.0759 0.621344 13.0865 0.63306 13.097 0.644755C13.0951 0.681324 13.121 0.701063 13.1481 0.720142L13.1597 0.748275C13.1792 0.79062 13.179 0.842638 13.2273 0.870834L13.2386 0.912168C13.2287 0.946943 13.2421 0.973509 13.2712 0.994526C13.2746 1.01519 13.2781 1.03588 13.2816 1.05657C13.2844 1.13501 13.2896 1.21343 13.2896 1.29191C13.2901 3.73503 13.2898 6.17815 13.2906 8.62128C13.2906 8.67825 13.2763 8.73854 13.3171 8.79041L13.3257 8.85311C13.3123 8.8957 13.3432 8.92103 13.3676 8.9489C13.3647 8.95327 13.3658 8.95653 13.3707 8.95872C13.3701 8.98553 13.3885 8.99988 13.4098 9.01251C13.4275 9.06593 13.4727 9.09639 13.5173 9.12745C13.6031 9.2145 13.7092 9.25562 13.8349 9.25218C13.8601 9.25465 13.8852 9.2593 13.9103 9.2593C15.5694 9.25934 17.2284 9.25899 18.8875 9.25868C18.9062 9.29457 18.8981 9.33293 18.8975 9.37006C18.8901 9.83145 18.9189 10.2935 18.8733 10.7542L18.8681 10.7949C18.848 10.8193 18.8253 10.8428 18.836 10.8778L18.8259 10.9191C18.7721 10.9528 18.7772 11.0145 18.7503 11.061C18.7457 11.0624 18.7442 11.0652 18.7461 11.0696C18.7075 11.1007 18.6805 11.1393 18.6636 11.1843L18.6172 11.2371C18.5746 11.2689 18.5343 11.3028 18.5052 11.3468C18.486 11.3616 18.4667 11.3764 18.4475 11.3912C18.3995 11.4062 18.3578 11.4296 18.3285 11.4697L18.3214 11.4692L18.3164 11.4739C18.2248 11.5136 18.1237 11.5333 18.0409 11.5912L17.989 11.5958C17.9223 11.5905 17.8571 11.5926 17.8004 11.6327C17.7643 11.6306 17.728 11.6267 17.6919 11.6267C15.5827 11.6264 13.4736 11.6265 11.3644 11.6267C11.3318 11.6267 11.2992 11.6302 11.2666 11.6321C11.21 11.5899 11.144 11.5913 11.0773 11.5958C11.0602 11.5941 11.0431 11.5924 11.026 11.5907C10.9812 11.5436 10.9151 11.5429 10.8582 11.522C10.847 11.5184 10.8358 11.5148 10.8246 11.5112C10.811 11.4943 10.7969 11.478 10.7708 11.4806L10.7387 11.4692C10.7209 11.4407 10.6975 11.4201 10.6601 11.4188L10.4582 11.2485C10.4575 11.2134 10.4334 11.1954 10.4034 11.1817L10.4042 11.1825C10.4027 11.1574 10.385 11.1431 10.3648 11.1306L10.3217 11.0632L10.1977 10.7745L10.1862 10.6921C10.1841 10.6275 10.1802 10.5629 10.1802 10.4983C10.1799 7.56194 10.1796 4.62551 10.1804 1.68908C10.1805 1.23927 10.1846 0.789486 10.1895 0.339699C10.1901 0.285804 10.1675 0.230754 10.1942 0.177519V0.177663Z" fill="#73D602"/>
<path fill-rule="evenodd" clip-rule="evenodd" d="M22.0768 1.23088C22.1498 1.16529 22.1313 1.07066 22.1568 0.99096C22.328 0.456277 22.8629 0.0480103 23.453 0.00731556C24.0295 -0.0324097 24.4739 0.178984 24.8101 0.617014C25.5008 1.51663 26.1959 2.41319 26.8882 3.31167C27.5313 4.1464 28.1723 4.98248 28.8172 5.81597C28.8682 5.88191 28.873 5.92397 28.8195 5.99315C27.892 7.1925 26.968 8.39432 26.0429 9.59534C25.6199 10.1445 25.1914 10.6898 24.7738 11.2426C24.2562 11.9279 23.1738 12.0268 22.5131 11.3852C22.4002 11.2757 22.3115 11.152 22.2329 11.0202C22.2345 11.0018 22.2256 10.989 22.2089 10.9802C22.2099 10.9566 22.2056 10.9347 22.1861 10.9176C22.1896 10.8991 22.1799 10.8869 22.1646 10.8773C22.1621 10.8635 22.1596 10.8497 22.157 10.8359C22.163 10.819 22.1628 10.8039 22.1432 10.7947L22.127 10.7495C22.1271 10.6336 22.1059 10.5205 22.0767 10.4084C22.0771 10.3951 22.0776 10.3819 22.0781 10.3686C22.1214 10.2751 22.1227 10.1752 22.1274 10.0759C22.1323 10.0722 22.1329 10.068 22.1292 10.0631C22.1523 10.0515 22.1645 10.0352 22.1558 10.0095C22.1595 9.98913 22.1632 9.96871 22.1669 9.94829C22.1923 9.93414 22.2078 9.91539 22.1999 9.88567C22.3424 9.58913 22.5707 9.34631 22.7692 9.08539C23.3286 8.35012 23.8941 7.61902 24.4573 6.88635C24.6896 6.58418 24.9207 6.28113 25.1557 5.98079C25.2017 5.92201 25.2034 5.88152 25.1557 5.82012C24.5888 5.09038 24.0251 4.35849 23.4613 3.62665C23.0853 3.1386 22.7095 2.65037 22.3357 2.16081C22.2174 2.00579 22.1454 1.83134 22.1195 1.64129C22.1142 1.60235 22.0999 1.56848 22.0766 1.53721L22.0768 1.23086V1.23088Z" fill="#FEAD01"/>
<path fill-rule="evenodd" clip-rule="evenodd" d="M22.0801 10.3685L22.0787 10.4081C22.0756 10.4455 22.0699 10.483 22.0697 10.5205C22.0681 10.833 22.0674 11.1456 22.0666 11.4581C22.0663 11.5905 22.0665 11.5905 21.9215 11.5905C20.982 11.5906 20.0424 11.5903 19.1028 11.5909C18.9505 11.591 18.9537 11.6251 18.9538 11.4475C18.9539 9.53093 18.9539 7.61432 18.9535 5.69767C18.9535 5.6567 18.9494 5.6157 18.9472 5.57474L18.9518 5.5339C18.9798 5.35944 19.0429 5.19596 19.1264 5.03892C19.1444 5.01541 19.1725 4.99812 19.1769 4.96619L19.4635 4.71258C19.4702 4.71398 19.4748 4.71171 19.4776 4.70577C19.5479 4.67953 19.6174 4.65177 19.6736 4.60175C19.688 4.59794 19.7025 4.59416 19.7169 4.59037C19.753 4.59817 19.7825 4.58866 19.8047 4.56038L19.8702 4.54951C19.936 4.56663 19.9991 4.53916 20.0647 4.5394C20.684 4.54194 21.3034 4.54085 21.9228 4.54097C22.0665 4.54097 22.0666 4.54124 22.0666 4.67892C22.0664 6.48305 22.066 8.28719 22.0667 10.0913C22.0667 10.1837 22.059 10.2768 22.0801 10.3685ZM32.0134 10.4214C32.0125 11.1196 31.4379 11.7253 30.704 11.8018C30.1155 11.8632 29.6527 11.6593 29.3065 11.2115C28.8228 10.5859 28.3411 9.95898 27.8551 9.33509C27.7973 9.26092 27.7875 9.20917 27.8491 9.12986C28.4225 8.39228 28.9923 7.65217 29.5603 6.9109C29.6117 6.84372 29.6341 6.8748 29.6678 6.91877C30.0615 7.43199 30.4557 7.94491 30.8497 8.45787C31.1568 8.8576 31.4671 9.25502 31.7694 9.65788C31.937 9.88115 32.0137 10.1462 32.0134 10.4214L32.0134 10.4214ZM32.0151 1.37095C32.0149 1.75665 31.8629 2.0514 31.6466 2.32906C30.988 3.17451 30.3354 4.02409 29.6825 4.87342C29.6384 4.93082 29.6115 4.96689 29.5515 4.88868C28.981 4.14417 28.4093 3.40053 27.8363 2.65771C27.8001 2.61073 27.7832 2.57432 27.8247 2.521C28.3511 1.84376 28.8684 1.16007 29.4044 0.489734C29.6454 0.188515 29.99 0.04267 30.3913 0.00626548C31.1106 -0.0590152 31.7613 0.391617 31.9547 1.0094C31.9945 1.1367 32.0313 1.26819 32.0151 1.37097L32.0151 1.37095Z" fill="#74D602"/>
<path fill-rule="evenodd" clip-rule="evenodd" d="M22.0775 1.23053L22.0773 1.53688C22.076 1.82853 22.086 2.12086 22.0709 2.41203C22.0384 3.03809 21.5171 3.48321 20.898 3.48591C20.2936 3.48859 19.6891 3.48437 19.0847 3.48859C18.9828 3.48927 18.9465 3.4676 18.9472 3.36467C18.9518 2.67095 18.9483 1.97718 18.95 1.28343C18.9515 0.660119 19.4658 0.177682 20.1251 0.17762C20.3945 0.177579 20.664 0.177414 20.9335 0.17762C21.4579 0.178074 21.953 0.572604 22.0409 1.05923C22.0512 1.11661 22.0652 1.17343 22.0775 1.23055V1.23053Z" fill="#73D602"/>
</g>
<defs>
<clipPath id="clip0_17_333">
<rect width="61" height="12" fill="white"/>
</clipPath>
</defs>
</svg>
