<svg width="45" height="20" viewBox="0 0 45 20" fill="none" xmlns="http://www.w3.org/2000/svg">
<path d="M1.94953 0.661806H0.559418V0.114407H3.94488V0.661806H2.54379V4.48703H1.94953V0.661806Z" fill="#63675C"/>
<path d="M8.28979 2.04386V4.20259C8.17537 4.26881 8.05547 4.31735 7.92458 4.37253C7.77744 4.42109 7.64656 4.47185 7.49393 4.50496C7.34679 4.53807 7.19943 4.55353 7.0523 4.56899C6.89967 4.58664 6.76879 4.6021 6.6379 4.6021C6.25644 4.6021 5.92923 4.53809 5.64571 4.4211C5.36769 4.28425 5.1169 4.12089 4.92079 3.92224C4.71897 3.70372 4.55536 3.45652 4.45742 3.17178C4.35925 2.90911 4.31006 2.60891 4.31006 2.29106C4.31006 1.97763 4.35925 1.67743 4.47367 1.39269C4.58809 1.11236 4.73544 0.860728 4.93704 0.662071C5.13337 0.450173 5.38416 0.295683 5.66218 0.165454C5.92923 0.0484664 6.23997 -9.65083e-05 6.57267 -9.65083e-05C6.96511 -9.65083e-05 7.2976 0.0484521 7.55937 0.147789C7.81016 0.247115 8.02274 0.377347 8.19162 0.564968L7.77744 1.01305C7.59758 0.843093 7.41201 0.728288 7.19943 0.662071C6.99784 0.580402 6.78525 0.547303 6.57267 0.547303C6.32188 0.547303 6.09284 0.598056 5.89651 0.695189C5.69491 0.779068 5.51505 0.909285 5.38416 1.0638C5.23154 1.22713 5.1169 1.40813 5.05146 1.62665C4.96976 1.82531 4.93704 2.0593 4.93704 2.29106C4.93704 2.54269 4.96976 2.77226 5.05146 2.99078C5.14962 3.20488 5.26425 3.3925 5.41688 3.54039C5.56402 3.70372 5.74388 3.81849 5.9457 3.90678C6.15827 4.00611 6.37086 4.03922 6.62165 4.03922C6.83423 4.03922 7.03605 4.02157 7.2159 3.98847C7.39576 3.93992 7.55937 3.89137 7.69553 3.81853V2.59126H6.71981V2.04386H8.28979V2.04386Z" fill="#63675C"/>
<path d="M8.76971 0.114407H9.44567L10.7159 3.67034H10.7323L12.0515 0.114407H12.7167L10.9994 4.48703H10.4378L8.76971 0.114407V0.114407Z" fill="#63675C"/>
<path d="M6.07833 10.438C6.07833 9.27625 7.02155 8.32845 8.17734 8.32845C9.33313 8.32845 10.2871 9.27625 10.2871 10.438V16.723H12.7186V10.438C12.7186 7.92826 10.685 5.86865 8.17734 5.86865C5.6804 5.86865 3.63608 7.92826 3.63608 10.438V16.723H6.07833V10.438Z" fill="#63675C"/>
<path d="M0.692554 6.36775C0.316366 7.9943 0.114549 9.69305 0.0982971 11.4355C0.0982971 11.4683 0.0982971 14.8437 0.0982971 14.8437C0.163741 14.7945 0.245434 14.7451 0.316367 14.6959C0.627111 14.5314 0.976067 14.4109 1.35225 14.4109C1.79916 14.4109 2.21356 14.5643 2.56251 14.8108V6.36775H0.692554V6.36775Z" fill="#63675C"/>
<path d="M1.35212 15.3584C0.594258 15.3584 0 15.9777 0 16.7229C0 17.4899 0.594258 18.0872 1.35212 18.0872C2.09901 18.0872 2.70952 17.4899 2.70952 16.7229C2.70952 15.9777 2.09901 15.3584 1.35212 15.3584V15.3584Z" fill="#930C38"/>
<path d="M38.3141 12.6517C38.3141 13.8134 37.372 14.7614 36.2147 14.7614C35.0596 14.7614 34.1218 13.8134 34.1218 12.6517V6.36754H31.6732V12.6517C31.6732 15.1614 33.7244 17.2217 36.2147 17.2217C38.7292 17.2217 40.7562 15.1614 40.7562 12.6517V6.36754H38.3141V12.6517V12.6517Z" fill="#930C38"/>
<path d="M43.0402 7.73176C43.7978 7.73176 44.4083 7.11258 44.4083 6.36807C44.4083 5.59993 43.7978 5.00398 43.0402 5.00398C42.2935 5.00398 41.683 5.59993 41.683 6.36807C41.683 7.11258 42.2935 7.73176 43.0402 7.73176Z" fill="#930C38"/>
<path d="M43.7025 16.723C44.078 15.0955 44.2954 13.3968 44.2954 11.6544C44.2954 11.6215 44.2954 8.24611 44.2954 8.24611C44.2317 8.29555 44.1483 8.34477 44.078 8.39399C43.7684 8.55844 43.4192 8.67366 43.0415 8.67366C42.5957 8.67366 42.1806 8.52556 41.849 8.27901V16.723H43.7025Z" fill="#930C38"/>
<path d="M22.1992 5.86893C25.3 5.86893 27.8299 8.41083 27.8299 11.5505C27.8299 14.6793 25.3 17.2219 22.1992 17.2219C19.0917 17.2219 16.5618 14.6793 16.5618 11.5505C16.5618 8.41083 19.0917 5.86893 22.1992 5.86893ZM22.1992 20C26.8395 20 30.5991 16.2081 30.5991 11.5505C30.5991 6.88206 26.8395 3.08993 22.1992 3.08993C17.5698 3.08993 13.808 6.88206 13.808 11.5505C13.808 16.2081 17.5698 20 22.1992 20Z" fill="#930C38"/>
</svg>
