<svg width="34" height="16" viewBox="0 0 34 16" fill="none" xmlns="http://www.w3.org/2000/svg">
<g clip-path="url(#clip0_17_246)">
<path d="M0.602962 0.0379286C0.237418 0.0521917 -0.000183105 0.209088 -0.000183105 0.544615V15.5034C-0.000183105 15.7642 0.200865 15.9999 0.510846 15.9999H29.2543C29.5123 15.9999 29.7185 15.9782 29.8399 15.6616C29.8399 15.6616 32.7533 7.1913 32.8044 7.03848C32.9126 6.71857 32.8424 6.55624 32.5486 6.38237C23.187 0.809504 9.18812 -0.000106812 2.82986 -0.000106812C1.91819 -0.000106812 1.16517 0.0168724 0.602962 0.0379286Z" fill="url(#paint0_linear_17_246)"/>
<path d="M18.3135 11.8321C17.9114 11.3967 17.752 10.835 17.8514 10.2088C18.0883 8.71521 19.6528 7.77112 21.746 7.77112C22.1868 7.77112 22.6408 7.79693 23.0487 7.84515L23.4625 6.71836C22.9581 6.64636 22.3469 6.6158 21.7474 6.6158C19.8912 6.6158 18.2769 7.20942 17.2308 8.25607C17.1979 8.28867 17.1642 8.28799 17.1438 8.28799C17.1116 8.28799 17.0897 8.28256 17.0984 8.25607L17.6226 6.72854H16.0903L14.4131 11.6168C13.8795 10.1741 12.7814 8.27713 11.4384 6.72854H9.79268L8.56226 10.2869C9.18076 10.7141 9.37669 11.0225 9.53826 11.4612C9.54776 11.487 9.5675 11.4925 9.59748 11.4925C9.62745 11.4925 9.64207 11.4857 9.65011 11.4612C9.66181 11.4273 10.7234 8.36882 10.7234 8.36882C11.8061 9.80805 12.8808 11.7017 13.4569 13.7012H15.2217L16.0946 11.1678C16.1042 11.142 16.1232 11.1366 16.1524 11.1366C16.1831 11.1366 16.2028 11.144 16.2065 11.1678C16.4719 12.7585 18.1746 13.8276 20.5879 13.8276C22.1481 13.8276 23.5583 13.4472 23.9092 13.2727L24.8238 10.5966H28.336L28.6935 9.56014H25.1806L25.7867 7.80304H29.9721L30.337 6.72854H24.4576L22.4617 12.5242C22.0384 12.6233 21.5149 12.6723 20.9681 12.6723C19.7903 12.6723 18.8472 12.4121 18.3135 11.8321ZM8.40142 7.79829L8.75088 6.77745C8.24862 6.69187 7.88966 6.64772 7.29016 6.63481C5.36302 6.59338 3.62084 7.08716 3.17268 8.13314C2.64191 9.37336 4.14795 10.0709 5.45294 10.6455C6.48889 11.1019 7.30771 11.5359 7.01966 12.1044C6.79595 12.5452 6.06267 12.7544 4.99674 12.732C4.07338 12.7116 2.92192 12.4658 2.01464 12.0413L1.4751 13.1253C2.14258 13.4133 3.51849 13.8045 4.69261 13.8296C6.89757 13.8765 8.32538 13.361 8.89709 12.2457C9.57335 10.9253 7.8955 10.2033 6.54811 9.59886C5.49315 9.12545 4.77376 8.87822 4.94703 8.4021C5.15173 7.83836 6.21254 7.62441 7.17392 7.64479C7.66009 7.65566 8.0059 7.71339 8.40142 7.79829Z" fill="#F1F3F6"/>
</g>
<defs>
<linearGradient id="paint0_linear_17_246" x1="-0.000264679" y1="-0.934857" x2="32.8109" y2="-0.934857" gradientUnits="userSpaceOnUse">
<stop stop-color="#7C2270"/>
<stop offset="0.247191" stop-color="#AA147E"/>
<stop offset="0.814607" stop-color="#E41D25"/>
<stop offset="1" stop-color="#E41D25"/>
</linearGradient>
<clipPath id="clip0_17_246">
<rect width="33.3333" height="16" fill="white"/>
</clipPath>
</defs>
</svg>
